<?xml version="1.0" encoding="UTF-8" standalone="no"?>
<!DOCTYPE svg PUBLIC "-//W3C//DTD SVG 1.1//EN" "http://www.w3.org/Graphics/SVG/1.1/DTD/svg11.dtd">
<svg width="100%" height="100%" viewBox="0 0 2118 481" version="1.1" xmlns="http://www.w3.org/2000/svg" xmlns:xlink="http://www.w3.org/1999/xlink" xml:space="preserve" xmlns:serif="http://www.serif.com/" style="fill-rule:evenodd;clip-rule:evenodd;stroke-linejoin:round;stroke-miterlimit:2;">
    <g transform="matrix(4.16667,0,0,4.16667,-191.625,-171.208)">
        <path d="M294.445,54.026L299.918,54.026C301.982,54.026 303.33,52.62 303.33,50.213C303.33,47.779 301.982,46.372 299.918,46.372L294.445,46.372L294.445,54.026ZM291.95,64.23L291.95,44.165L300.349,44.165C303.789,44.165 305.88,46.517 305.88,50.213C305.88,53.912 303.789,56.234 300.349,56.234L294.445,56.234L294.445,64.23L291.95,64.23Z" style="fill:rgb(35,31,32);fill-rule:nonzero;"/>
        <path d="M322.269,57.58L322.269,50.816C322.269,47.949 320.349,46.03 317.054,46.03C313.728,46.03 311.838,47.949 311.838,50.816L311.838,57.58C311.838,60.447 313.728,62.367 317.054,62.367C320.349,62.367 322.269,60.447 322.269,57.58ZM309.343,50.93C309.343,46.431 312.325,43.737 317.054,43.737C321.783,43.737 324.764,46.431 324.764,50.93L324.764,57.465C324.764,61.966 321.783,64.658 317.054,64.658C312.325,64.658 309.343,61.966 309.343,57.465L309.343,50.93Z" style="fill:rgb(35,31,32);fill-rule:nonzero;"/>
        <path d="M329.514,64.23L329.514,44.165L332.009,44.165L332.009,62.022L342.269,62.022L342.269,64.23L329.514,64.23Z" style="fill:rgb(35,31,32);fill-rule:nonzero;"/>
        <rect x="345.587" y="44.165" width="2.497" height="20.065" style="fill:rgb(35,31,32);fill-rule:nonzero;"/>
        <path d="M357.51,64.23L357.51,46.372L351.404,46.372L351.404,44.165L366.079,44.165L366.079,46.372L360.003,46.372L360.003,64.23L357.51,64.23Z" style="fill:rgb(35,31,32);fill-rule:nonzero;"/>
        <path d="M369.4,64.23L369.4,44.165L381.897,44.165L381.897,46.372L371.896,46.372L371.896,53.022L380.55,53.022L380.55,55.229L371.896,55.229L371.896,62.022L381.925,62.022L381.925,64.23L369.4,64.23Z" style="fill:rgb(35,31,32);fill-rule:nonzero;"/>
        <path d="M385.562,57.437L385.562,50.959C385.562,46.401 388.4,43.737 393.245,43.737C395.336,43.737 397.055,44.309 398.46,45.485C399.866,46.66 400.552,48.351 400.552,50.559L400.552,50.844L398.059,50.844L398.059,50.559C398.059,49.095 397.572,47.978 396.598,47.205C395.652,46.431 394.504,46.03 393.214,46.03C389.861,46.03 388.057,47.779 388.057,50.786L388.057,57.609C388.057,60.618 389.861,62.367 393.214,62.367C394.504,62.367 395.652,61.966 396.598,61.192C397.572,60.417 398.059,59.299 398.059,57.838L398.059,57.55L400.552,57.55L400.552,57.838C400.552,60.046 399.866,61.737 398.46,62.909C397.055,64.085 395.336,64.658 393.245,64.658C388.4,64.658 385.562,61.993 385.562,57.437Z" style="fill:rgb(35,31,32);fill-rule:nonzero;"/>
        <path d="M405.016,64.23L405.016,44.165L407.511,44.165L407.511,53.052L417.284,53.052L417.284,44.165L419.78,44.165L419.78,64.23L417.284,64.23L417.284,55.259L407.511,55.259L407.511,64.23L405.016,64.23Z" style="fill:rgb(35,31,32);fill-rule:nonzero;"/>
        <path d="M425.102,64.23L425.102,44.165L427.396,44.165L437.37,59.615L437.37,44.165L439.865,44.165L439.865,64.23L437.572,64.23L427.597,48.81L427.597,64.23L425.102,64.23Z" style="fill:rgb(35,31,32);fill-rule:nonzero;"/>
        <rect x="445.188" y="44.165" width="2.495" height="20.065" style="fill:rgb(35,31,32);fill-rule:nonzero;"/>
        <path d="M453.01,64.23L453.01,44.165L455.505,44.165L455.505,53.052L458.714,53.052L464.533,44.165L466.854,44.165L466.854,44.997L460.892,54.026L467.228,63.399L467.228,64.23L464.762,64.23L458.743,55.259L455.505,55.259L455.505,64.23L453.01,64.23Z" style="fill:rgb(35,31,32);fill-rule:nonzero;"/>
        <path d="M473.642,56.779L480.781,56.779L477.225,47.49L473.642,56.779ZM468.541,64.23L468.541,63.399L476.022,44.165L478.515,44.165L486.024,63.399L486.024,64.23L483.561,64.23L481.552,58.898L472.898,58.898L470.835,64.23L468.541,64.23Z" style="fill:rgb(35,31,32);fill-rule:nonzero;"/>
        <path d="M291.95,94.107L291.95,74.042L294.445,74.042L294.445,91.899L304.705,91.899L304.705,94.107L291.95,94.107Z" style="fill:rgb(35,31,32);fill-rule:nonzero;"/>
        <path d="M309.487,92.701C308.139,91.47 307.453,89.78 307.453,87.572L307.453,74.042L309.946,74.042L309.946,87.657C309.946,90.438 311.781,92.244 314.848,92.244C317.915,92.244 319.72,90.495 319.72,87.657L319.72,74.042L322.213,74.042L322.213,87.572C322.213,89.749 321.525,91.47 320.177,92.701C318.833,93.935 317.054,94.535 314.848,94.535C312.641,94.535 310.835,93.935 309.487,92.701Z" style="fill:rgb(35,31,32);fill-rule:nonzero;"/>
        <path d="M329.746,91.899L335.965,91.899C338.143,91.899 339.347,90.667 339.347,88.49C339.347,86.282 338.143,85.021 335.965,85.021L329.746,85.021L329.746,91.899ZM329.746,82.899L335.305,82.899C337.399,82.899 338.573,81.667 338.573,79.575C338.573,77.426 337.426,76.25 335.25,76.25L329.746,76.25L329.746,82.899ZM327.251,94.107L327.251,74.042L335.678,74.042C339.089,74.042 341.068,75.877 341.068,79.318C341.068,81.468 340.208,82.929 338.459,83.673C340.722,84.332 341.84,85.967 341.84,88.631C341.84,92.158 339.806,94.107 336.395,94.107L327.251,94.107Z" style="fill:rgb(35,31,32);fill-rule:nonzero;"/>
        <path d="M346.019,94.107L346.019,74.042L358.516,74.042L358.516,76.25L348.514,76.25L348.514,82.899L357.169,82.899L357.169,85.107L348.514,85.107L348.514,91.899L358.544,91.899L358.544,94.107L346.019,94.107Z" style="fill:rgb(35,31,32);fill-rule:nonzero;"/>
        <path d="M362.753,94.107L362.753,74.042L365.249,74.042L365.249,91.899L375.508,91.899L375.508,94.107L362.753,94.107Z" style="fill:rgb(35,31,32);fill-rule:nonzero;"/>
        <path d="M379.488,92.759C378,91.583 377.252,89.865 377.252,87.6L379.748,87.6C379.748,91.126 382.7,92.244 385.107,92.244C387.973,92.244 389.578,90.925 389.578,89.005C389.578,88.145 389.233,87.458 388.546,86.971C387.857,86.453 386.681,85.881 384.991,85.25L383.558,84.734C381.524,84.019 380.09,83.244 379.203,82.47C378.315,81.696 377.883,80.577 377.883,79.144C377.883,75.821 380.52,73.614 384.792,73.614C389.177,73.614 392.071,75.791 392.071,80.378L389.578,80.378C389.578,77.31 387.542,75.907 384.761,75.907C382.097,75.907 380.376,77.168 380.376,78.973C380.376,79.861 380.692,80.522 381.294,81.009C381.895,81.495 383.013,82.011 384.59,82.556L385.937,83.042C388.001,83.817 389.061,84.246 390.323,85.164C391.612,86.08 392.214,87.284 392.214,88.891C392.214,92.214 389.606,94.535 384.991,94.535C382.813,94.535 380.979,93.935 379.488,92.759Z" style="fill:rgb(35,31,32);fill-rule:nonzero;"/>
        <path d="M396.679,94.107L396.679,74.042L399.174,74.042L399.174,82.929L402.384,82.929L408.203,74.042L410.524,74.042L410.524,74.875L404.562,83.903L410.897,93.277L410.897,94.107L408.432,94.107L402.412,85.137L399.174,85.137L399.174,94.107L396.679,94.107Z" style="fill:rgb(35,31,32);fill-rule:nonzero;"/>
        <path d="M417.31,86.656L424.448,86.656L420.893,77.367L417.31,86.656ZM412.209,94.107L412.209,93.277L419.689,74.042L422.182,74.042L429.691,93.277L429.691,94.107L427.228,94.107L425.22,88.775L416.565,88.775L414.501,94.107L412.209,94.107Z" style="fill:rgb(35,31,32);fill-rule:nonzero;"/>
        <path d="M294.473,123.985L290.517,104.754L290.517,103.922L292.982,103.922L296.164,120.002L300.263,109.598L301.838,109.598L305.997,120.059L309.148,103.922L311.469,103.922L311.469,104.754L307.515,123.985L305.164,123.985L301.008,113.409L296.825,123.985L294.473,123.985Z" style="fill:rgb(146,150,152);fill-rule:nonzero;"/>
        <path d="M320.175,123.985L320.175,116.017L313.068,104.754L313.068,103.922L315.533,103.922L321.437,113.524L327.483,103.922L329.749,103.922L329.749,104.754L322.668,115.931L322.668,123.985L320.175,123.985Z" style="fill:rgb(146,150,152);fill-rule:nonzero;"/>
        <path d="M335.305,121.778L339.804,121.778C343.099,121.778 345.022,119.916 345.022,117.05L345.022,110.857C345.022,107.991 343.099,106.129 339.804,106.129L335.305,106.129L335.305,121.778ZM332.81,123.985L332.81,103.922L339.804,103.922C344.533,103.922 347.514,106.472 347.514,110.916L347.514,116.991C347.514,121.434 344.533,123.985 339.804,123.985L332.81,123.985Z" style="fill:rgb(146,150,152);fill-rule:nonzero;"/>
        <path d="M350.832,123.985L350.832,121.808L361.782,106.129L351.233,106.129L351.233,103.922L364.648,103.922L364.648,106.071L353.698,121.778L364.933,121.778L364.933,123.985L350.832,123.985Z" style="fill:rgb(146,150,152);fill-rule:nonzero;"/>
        <rect x="368.797" y="103.922" width="2.496" height="20.063" style="fill:rgb(146,150,152);fill-rule:nonzero;"/>
        <path d="M379.715,116.535L386.853,116.535L383.298,107.247L379.715,116.535ZM374.614,123.985L374.614,123.155L382.094,103.922L384.587,103.922L392.097,123.155L392.097,123.985L389.633,123.985L387.626,118.654L378.971,118.654L376.907,123.985L374.614,123.985Z" style="fill:rgb(146,150,152);fill-rule:nonzero;"/>
        <path d="M396.564,123.985L396.564,116.849L394.328,118.568L393.44,118.568L393.44,116.535L396.564,114.155L396.564,103.922L399.056,103.922L399.056,112.235L403.414,108.824L404.302,108.824L404.302,110.888L399.056,114.958L399.056,121.778L409.318,121.778L409.318,123.985L396.564,123.985Z" style="fill:rgb(146,150,152);fill-rule:nonzero;"/>
        <rect x="418.626" y="103.922" width="2.494" height="20.063" style="fill:rgb(146,150,152);fill-rule:nonzero;"/>
        <path d="M426.447,123.985L426.447,103.922L428.741,103.922L438.714,119.371L438.714,103.922L441.208,103.922L441.208,123.985L438.917,123.985L428.943,108.566L428.943,123.985L426.447,123.985Z" style="fill:rgb(146,150,152);fill-rule:nonzero;"/>
        <path d="M450.806,101.802L450.806,98.419L453.244,98.419L453.244,101.802L450.806,101.802ZM445.102,123.985L445.102,121.808L456.052,106.129L445.502,106.129L445.502,103.922L458.918,103.922L458.918,106.071L447.968,121.778L459.204,121.778L459.204,123.985L445.102,123.985Z" style="fill:rgb(146,150,152);fill-rule:nonzero;"/>
        <path d="M467.884,123.985L467.884,116.017L460.776,104.754L460.776,103.922L463.242,103.922L469.146,113.524L475.192,103.922L477.458,103.922L477.458,104.754L470.377,115.931L470.377,123.985L467.884,123.985Z" style="fill:rgb(146,150,152);fill-rule:nonzero;"/>
        <path d="M480.516,123.985L480.516,103.922L482.81,103.922L492.784,119.371L492.784,103.922L495.277,103.922L495.277,123.985L492.986,123.985L483.011,108.566L483.011,123.985L480.516,123.985Z" style="fill:rgb(146,150,152);fill-rule:nonzero;"/>
        <rect x="500.602" y="103.922" width="2.495" height="20.063" style="fill:rgb(146,150,152);fill-rule:nonzero;"/>
        <path d="M508.424,123.985L508.424,103.922L520.921,103.922L520.921,106.129L510.919,106.129L510.919,112.778L519.573,112.778L519.573,114.985L510.919,114.985L510.919,121.778L520.948,121.778L520.948,123.985L508.424,123.985Z" style="fill:rgb(146,150,152);fill-rule:nonzero;"/>
        <path d="M527.654,113.84L533.126,113.84C535.506,113.84 536.826,112.492 536.826,109.97C536.826,107.419 535.592,106.129 533.126,106.129L527.654,106.129L527.654,113.84ZM525.159,123.985L525.159,103.922L533.558,103.922C537.254,103.922 539.376,106.187 539.376,109.97C539.376,112.922 538.086,114.842 535.536,115.732L539.692,123.155L539.692,123.985L537.227,123.985L532.784,116.046L527.654,116.046L527.654,123.985L525.159,123.985Z" style="fill:rgb(146,150,152);fill-rule:nonzero;"/>
        <rect x="543.811" y="103.922" width="2.495" height="20.063" style="fill:rgb(146,150,152);fill-rule:nonzero;"/>
        <rect x="551.633" y="103.922" width="2.495" height="20.063" style="fill:rgb(146,150,152);fill-rule:nonzero;"/>
        <path d="M301.982,128.555L298.917,132.022L296.709,132.022L299.633,127.695L301.982,127.695L301.982,128.555ZM292.896,152.515C291.407,151.34 290.661,149.621 290.661,147.356L293.156,147.356C293.156,150.883 296.108,152.001 298.515,152.001C301.381,152.001 302.986,150.681 302.986,148.761C302.986,147.9 302.641,147.214 301.955,146.727C301.265,146.21 300.089,145.638 298.399,145.007L296.966,144.489C294.932,143.773 293.5,143.001 292.611,142.226C291.722,141.452 291.292,140.334 291.292,138.9C291.292,135.577 293.928,133.37 298.2,133.37C302.585,133.37 305.479,135.548 305.479,140.135L302.986,140.135C302.986,137.066 300.95,135.663 298.169,135.663C295.505,135.663 293.785,136.925 293.785,138.729C293.785,139.617 294.1,140.278 294.703,140.765C295.303,141.252 296.421,141.766 297.998,142.312L299.345,142.799C301.41,143.573 302.469,144.003 303.731,144.921C305.02,145.837 305.623,147.041 305.623,148.647C305.623,151.971 303.014,154.292 298.399,154.292C296.221,154.292 294.387,153.691 292.896,152.515Z" style="fill:rgb(146,150,152);fill-rule:nonzero;"/>
        <path d="M312.583,143.717L318.055,143.717C320.435,143.717 321.754,142.37 321.754,139.846C321.754,137.296 320.521,136.007 318.055,136.007L312.583,136.007L312.583,143.717ZM310.087,153.863L310.087,133.799L318.487,133.799C322.183,133.799 324.305,136.064 324.305,139.846C324.305,142.799 323.016,144.72 320.465,145.609L324.621,153.033L324.621,153.863L322.156,153.863L317.712,145.923L312.583,145.923L312.583,153.863L310.087,153.863Z" style="fill:rgb(146,150,152);fill-rule:nonzero;"/>
        <path d="M341.093,147.214L341.093,140.45C341.093,137.583 339.173,135.663 335.877,135.663C332.552,135.663 330.663,137.583 330.663,140.45L330.663,147.214C330.663,150.081 332.552,152.001 335.877,152.001C339.173,152.001 341.093,150.081 341.093,147.214ZM328.168,140.563C328.168,136.064 331.149,133.37 335.877,133.37C340.606,133.37 343.588,136.064 343.588,140.563L343.588,147.098C343.588,151.599 340.606,154.292 335.877,154.292C331.149,154.292 328.168,151.599 328.168,147.098L328.168,140.563Z" style="fill:rgb(146,150,152);fill-rule:nonzero;"/>
        <path d="M350.835,151.655L355.335,151.655C358.63,151.655 360.552,149.793 360.552,146.927L360.552,140.735C360.552,137.869 358.63,136.007 355.335,136.007L350.835,136.007L350.835,151.655ZM348.34,153.863L348.34,133.799L355.335,133.799C360.063,133.799 363.045,136.349 363.045,140.793L363.045,146.869C363.045,151.312 360.063,153.863 355.335,153.863L348.34,153.863Z" style="fill:rgb(146,150,152);fill-rule:nonzero;"/>
        <path d="M380.149,147.214L380.149,140.45C380.149,137.583 378.229,135.663 374.933,135.663C371.608,135.663 369.717,137.583 369.717,140.45L369.717,147.214C369.717,150.081 371.608,152.001 374.933,152.001C378.229,152.001 380.149,150.081 380.149,147.214ZM367.222,140.563C367.222,136.064 370.205,133.37 374.933,133.37C379.662,133.37 382.644,136.064 382.644,140.563L382.644,147.098C382.644,151.599 379.662,154.292 374.933,154.292C370.205,154.292 367.222,151.599 367.222,147.098L367.222,140.563Z" style="fill:rgb(146,150,152);fill-rule:nonzero;"/>
        <path d="M389.917,153.863L385.96,134.632L385.96,133.799L388.426,133.799L391.608,149.879L395.708,139.475L397.282,139.475L401.44,149.936L404.591,133.799L406.913,133.799L406.913,134.632L402.96,153.863L400.608,153.863L396.452,143.286L392.268,153.863L389.917,153.863Z" style="fill:rgb(146,150,152);fill-rule:nonzero;"/>
        <rect x="410.802" y="133.799" width="2.496" height="20.064" style="fill:rgb(146,150,152);fill-rule:nonzero;"/>
        <path d="M419.571,152.515C418.083,151.34 417.335,149.621 417.335,147.356L419.831,147.356C419.831,150.883 422.783,152.001 425.19,152.001C428.056,152.001 429.661,150.681 429.661,148.761C429.661,147.9 429.316,147.214 428.629,146.727C427.941,146.21 426.764,145.638 425.074,145.007L423.641,144.489C421.607,143.773 420.174,143.001 419.286,142.226C418.398,141.452 417.966,140.334 417.966,138.9C417.966,135.577 420.603,133.37 424.875,133.37C429.26,133.37 432.154,135.548 432.154,140.135L429.661,140.135C429.661,137.066 427.625,135.663 424.844,135.663C422.18,135.663 420.46,136.925 420.46,138.729C420.46,139.617 420.775,140.278 421.377,140.765C421.978,141.252 423.096,141.766 424.673,142.312L426.02,142.799C428.085,143.573 429.144,144.003 430.406,144.921C431.695,145.837 432.297,147.041 432.297,148.647C432.297,151.971 429.689,154.292 425.074,154.292C422.897,154.292 421.062,153.691 419.571,152.515Z" style="fill:rgb(146,150,152);fill-rule:nonzero;"/>
        <path d="M436.762,153.863L436.762,133.799L439.257,133.799L439.257,142.685L442.467,142.685L448.286,133.799L450.607,133.799L450.607,134.632L444.645,143.659L450.98,153.033L450.98,153.863L448.515,153.863L442.495,144.892L439.257,144.892L439.257,153.863L436.762,153.863Z" style="fill:rgb(146,150,152);fill-rule:nonzero;"/>
        <path d="M457.395,146.412L464.533,146.412L460.978,137.124L457.395,146.412ZM452.293,153.863L452.293,153.033L459.774,133.799L462.267,133.799L469.777,153.033L469.777,153.863L467.314,153.863L465.305,148.531L456.651,148.531L454.586,153.863L452.293,153.863Z" style="fill:rgb(146,150,152);fill-rule:nonzero;"/>
        <path class="sign" d="M67.415,148.485L53.99,148.485L53.99,49.09L67.415,49.09L67.415,41.09L45.99,41.09L45.99,156.485L67.415,156.485L67.415,148.485Z" style="fill:rgb(19,169,75);fill-rule:nonzero;"/>
        <path class="sign" d="M75.248,41.09L75.248,49.09L141.847,49.09L141.847,148.485L75.248,148.485L75.248,156.485L149.847,156.485L149.847,41.09L75.248,41.09Z" style="fill:rgb(19,169,75);fill-rule:nonzero;"/>
        <path class="sign" d="M189.229,128.298L189.229,141.406L202.337,141.406L189.229,128.298Z" style="fill:rgb(19,169,75);fill-rule:nonzero;"/>
        <path class="sign" d="M181.396,120.465L167.944,107.013L167.944,55.944L174.797,49.09L181.396,49.09L181.396,41.09L171.484,41.09L159.944,52.63L159.944,110.327L181.396,131.779L181.396,120.465Z" style="fill:rgb(19,169,75);fill-rule:nonzero;"/>
        <path class="sign" d="M263.8,41.09L189.229,41.09L189.229,49.09L255.8,49.09L255.8,56.169L221.408,56.169L235.065,69.826L255.8,90.562L255.8,141.632L248.947,148.485L189.229,148.485L189.229,156.485L252.26,156.485L263.8,144.945L263.8,87.248L240.721,64.169L263.8,64.169L263.8,41.09Z" style="fill:rgb(19,169,75);fill-rule:nonzero;"/>
        <path class="sign" d="M181.396,148.485L167.944,148.485L167.944,141.406L181.396,141.406L181.396,133.406L159.944,133.406L159.944,156.485L181.396,156.485L181.396,148.485Z" style="fill:rgb(19,169,75);fill-rule:nonzero;"/>
    </g>
</svg>
