<?xml version="1.0" encoding="UTF-8" standalone="no"?>
<!DOCTYPE svg PUBLIC "-//W3C//DTD SVG 1.1//EN" "http://www.w3.org/Graphics/SVG/1.1/DTD/svg11.dtd">
<svg width="100%" height="100%" viewBox="0 0 1838 481" version="1.1" xmlns="http://www.w3.org/2000/svg" xmlns:xlink="http://www.w3.org/1999/xlink" xml:space="preserve" xmlns:serif="http://www.serif.com/" style="fill-rule:evenodd;clip-rule:evenodd;stroke-linejoin:round;stroke-miterlimit:2;">
    <g transform="matrix(4.16667,0,0,4.16667,-194.396,-175.375)">
        <path d="M294.854,55.026L300.327,55.026C302.391,55.026 303.738,53.62 303.738,51.213C303.738,48.778 302.391,47.373 300.327,47.373L294.854,47.373L294.854,55.026ZM292.359,65.229L292.359,45.165L300.758,45.165C304.197,45.165 306.289,47.517 306.289,51.213C306.289,54.912 304.197,57.233 300.758,57.233L294.854,57.233L294.854,65.229L292.359,65.229Z" style="fill:rgb(35,31,32);fill-rule:nonzero;"/>
        <path d="M322.678,58.581L322.678,51.816C322.678,48.95 320.758,47.03 317.462,47.03C314.137,47.03 312.247,48.95 312.247,51.816L312.247,58.581C312.247,61.447 314.137,63.367 317.462,63.367C320.758,63.367 322.678,61.447 322.678,58.581ZM309.751,51.93C309.751,47.431 312.734,44.736 317.462,44.736C322.191,44.736 325.173,47.431 325.173,51.93L325.173,58.465C325.173,62.966 322.191,65.658 317.462,65.658C312.734,65.658 309.751,62.966 309.751,58.465L309.751,51.93Z" style="fill:rgb(35,31,32);fill-rule:nonzero;"/>
        <path d="M329.923,65.229L329.923,45.165L332.418,45.165L332.418,63.022L342.677,63.022L342.677,65.229L329.923,65.229Z" style="fill:rgb(35,31,32);fill-rule:nonzero;"/>
        <rect x="345.997" y="45.165" width="2.495" height="20.064" style="fill:rgb(35,31,32);fill-rule:nonzero;"/>
        <path d="M357.918,65.229L357.918,47.373L351.813,47.373L351.813,45.165L366.488,45.165L366.488,47.373L360.412,47.373L360.412,65.229L357.918,65.229Z" style="fill:rgb(35,31,32);fill-rule:nonzero;"/>
        <path d="M369.809,65.229L369.809,45.165L382.306,45.165L382.306,47.373L372.304,47.373L372.304,54.022L380.958,54.022L380.958,56.229L372.304,56.229L372.304,63.022L382.333,63.022L382.333,65.229L369.809,65.229Z" style="fill:rgb(35,31,32);fill-rule:nonzero;"/>
        <path d="M385.97,58.437L385.97,51.96C385.97,47.401 388.809,44.736 393.653,44.736C395.745,44.736 397.463,45.309 398.869,46.485C400.274,47.66 400.96,49.351 400.96,51.558L400.96,51.844L398.467,51.844L398.467,51.558C398.467,50.095 397.981,48.978 397.006,48.205C396.06,47.431 394.913,47.03 393.624,47.03C390.27,47.03 388.465,48.778 388.465,51.786L388.465,58.609C388.465,61.618 390.27,63.367 393.624,63.367C394.913,63.367 396.06,62.966 397.006,62.192C397.981,61.417 398.467,60.299 398.467,58.838L398.467,58.551L400.96,58.551L400.96,58.838C400.96,61.046 400.274,62.736 398.869,63.91C397.463,65.086 395.745,65.658 393.653,65.658C388.809,65.658 385.97,62.994 385.97,58.437Z" style="fill:rgb(35,31,32);fill-rule:nonzero;"/>
        <path d="M405.425,65.229L405.425,45.165L407.92,45.165L407.92,54.052L417.693,54.052L417.693,45.165L420.188,45.165L420.188,65.229L417.693,65.229L417.693,56.26L407.92,56.26L407.92,65.229L405.425,65.229Z" style="fill:rgb(35,31,32);fill-rule:nonzero;"/>
        <path d="M425.51,65.229L425.51,45.165L427.804,45.165L437.779,60.615L437.779,45.165L440.273,45.165L440.273,65.229L437.98,65.229L428.006,49.81L428.006,65.229L425.51,65.229Z" style="fill:rgb(35,31,32);fill-rule:nonzero;"/>
        <rect x="445.596" y="45.165" width="2.495" height="20.064" style="fill:rgb(35,31,32);fill-rule:nonzero;"/>
        <path d="M453.418,65.229L453.418,45.165L455.914,45.165L455.914,54.052L459.124,54.052L464.942,45.165L467.263,45.165L467.263,45.998L461.3,55.026L467.636,64.399L467.636,65.229L465.171,65.229L459.151,56.26L455.914,56.26L455.914,65.229L453.418,65.229Z" style="fill:rgb(35,31,32);fill-rule:nonzero;"/>
        <path d="M474.051,57.778L481.189,57.778L477.634,48.491L474.051,57.778ZM468.95,65.229L468.95,64.399L476.43,45.165L478.923,45.165L486.432,64.399L486.432,65.229L483.969,65.229L481.961,59.898L473.307,59.898L471.243,65.229L468.95,65.229Z" style="fill:rgb(35,31,32);fill-rule:nonzero;"/>
        <path d="M292.359,95.107L292.359,75.043L294.854,75.043L294.854,92.899L305.114,92.899L305.114,95.107L292.359,95.107Z" style="fill:rgb(35,31,32);fill-rule:nonzero;"/>
        <path d="M309.895,93.701C308.548,92.47 307.862,90.78 307.862,88.572L307.862,75.043L310.355,75.043L310.355,88.657C310.355,91.438 312.189,93.244 315.257,93.244C318.323,93.244 320.129,91.496 320.129,88.657L320.129,75.043L322.623,75.043L322.623,88.572C322.623,90.749 321.933,92.47 320.586,93.701C319.241,94.935 317.462,95.536 315.257,95.536C313.049,95.536 311.243,94.935 309.895,93.701Z" style="fill:rgb(35,31,32);fill-rule:nonzero;"/>
        <path d="M330.155,92.899L336.375,92.899C338.552,92.899 339.755,91.668 339.755,89.49C339.755,87.282 338.552,86.021 336.375,86.021L330.155,86.021L330.155,92.899ZM330.155,83.899L335.713,83.899C337.808,83.899 338.981,82.667 338.981,80.575C338.981,78.426 337.835,77.25 335.658,77.25L330.155,77.25L330.155,83.899ZM327.66,95.107L327.66,75.043L336.086,75.043C339.499,75.043 341.476,76.877 341.476,80.318C341.476,82.468 340.616,83.929 338.868,84.674C341.13,85.332 342.249,86.967 342.249,89.632C342.249,93.158 340.214,95.107 336.803,95.107L327.66,95.107Z" style="fill:rgb(35,31,32);fill-rule:nonzero;"/>
        <path d="M346.428,95.107L346.428,75.043L358.925,75.043L358.925,77.25L348.923,77.25L348.923,83.899L357.578,83.899L357.578,86.107L348.923,86.107L348.923,92.899L358.954,92.899L358.954,95.107L346.428,95.107Z" style="fill:rgb(35,31,32);fill-rule:nonzero;"/>
        <path d="M363.163,95.107L363.163,75.043L365.658,75.043L365.658,92.899L375.917,92.899L375.917,95.107L363.163,95.107Z" style="fill:rgb(35,31,32);fill-rule:nonzero;"/>
        <path d="M379.897,93.759C378.408,92.584 377.661,90.865 377.661,88.599L380.157,88.599C380.157,92.127 383.109,93.244 385.515,93.244C388.381,93.244 389.987,91.925 389.987,90.005C389.987,89.144 389.641,88.458 388.955,87.971C388.266,87.454 387.09,86.881 385.4,86.25L383.967,85.733C381.933,85.019 380.5,84.244 379.611,83.47C378.723,82.696 378.292,81.577 378.292,80.144C378.292,76.821 380.928,74.614 385.201,74.614C389.585,74.614 392.48,76.791 392.48,81.378L389.987,81.378C389.987,78.31 387.951,76.907 385.17,76.907C382.505,76.907 380.785,78.168 380.785,79.973C380.785,80.861 381.1,81.522 381.704,82.009C382.304,82.496 383.421,83.011 384.999,83.555L386.346,84.043C388.41,84.817 389.469,85.246 390.731,86.164C392.021,87.081 392.624,88.284 392.624,89.891C392.624,93.215 390.014,95.536 385.4,95.536C383.222,95.536 381.387,94.935 379.897,93.759Z" style="fill:rgb(35,31,32);fill-rule:nonzero;"/>
        <path d="M397.088,95.107L397.088,75.043L399.583,75.043L399.583,83.929L402.792,83.929L408.611,75.043L410.932,75.043L410.932,75.875L404.97,84.903L411.306,94.277L411.306,95.107L408.84,95.107L402.821,86.136L399.583,86.136L399.583,95.107L397.088,95.107Z" style="fill:rgb(35,31,32);fill-rule:nonzero;"/>
        <path d="M417.718,87.656L424.856,87.656L421.301,78.368L417.718,87.656ZM412.617,95.107L412.617,94.277L420.098,75.043L422.59,75.043L430.1,94.277L430.1,95.107L427.637,95.107L425.628,89.775L416.974,89.775L414.91,95.107L412.617,95.107Z" style="fill:rgb(35,31,32);fill-rule:nonzero;"/>
        <path d="M294.882,124.986L290.925,105.754L290.925,104.922L293.39,104.922L296.573,121.002L300.672,110.598L302.248,110.598L306.405,121.059L309.556,104.922L311.878,104.922L311.878,105.754L307.924,124.986L305.573,124.986L301.417,114.408L297.233,124.986L294.882,124.986Z" style="fill:rgb(146,150,152);fill-rule:nonzero;"/>
        <path d="M320.584,124.986L320.584,117.017L313.476,105.754L313.476,104.922L315.941,104.922L321.845,114.525L327.891,104.922L330.157,104.922L330.157,105.754L323.077,116.932L323.077,124.986L320.584,124.986Z" style="fill:rgb(146,150,152);fill-rule:nonzero;"/>
        <path d="M335.713,122.778L340.212,122.778C343.508,122.778 345.43,120.916 345.43,118.05L345.43,111.858C345.43,108.991 343.508,107.129 340.212,107.129L335.713,107.129L335.713,122.778ZM333.218,124.986L333.218,104.922L340.212,104.922C344.941,104.922 347.923,107.472 347.923,111.916L347.923,117.991C347.923,122.435 344.941,124.986 340.212,124.986L333.218,124.986Z" style="fill:rgb(146,150,152);fill-rule:nonzero;"/>
        <path d="M351.24,124.986L351.24,122.808L362.19,107.129L351.641,107.129L351.641,104.922L365.056,104.922L365.056,107.071L354.107,122.778L365.342,122.778L365.342,124.986L351.24,124.986Z" style="fill:rgb(146,150,152);fill-rule:nonzero;"/>
        <rect x="369.206" y="104.922" width="2.496" height="20.064" style="fill:rgb(146,150,152);fill-rule:nonzero;"/>
        <path d="M380.124,117.534L387.262,117.534L383.707,108.247L380.124,117.534ZM375.022,124.986L375.022,124.156L382.503,104.922L384.997,104.922L392.505,124.156L392.505,124.986L390.042,124.986L388.035,119.654L379.379,119.654L377.316,124.986L375.022,124.986Z" style="fill:rgb(146,150,152);fill-rule:nonzero;"/>
        <path d="M396.972,124.986L396.972,117.85L394.737,119.569L393.848,119.569L393.848,117.534L396.972,115.155L396.972,104.922L399.465,104.922L399.465,113.235L403.823,109.824L404.71,109.824L404.71,111.888L399.465,115.958L399.465,122.778L409.727,122.778L409.727,124.986L396.972,124.986Z" style="fill:rgb(146,150,152);fill-rule:nonzero;"/>
        <path d="M292.359,154.863L292.359,134.799L294.768,134.799L301.245,144.974L307.722,134.799L310.043,134.799L310.043,154.863L307.636,154.863L307.636,139.214L302.02,148.04L300.384,148.04L294.768,139.242L294.768,154.863L292.359,154.863Z" style="fill:rgb(146,150,152);fill-rule:nonzero;"/>
        <path d="M315.367,154.863L315.367,134.799L327.864,134.799L327.864,137.007L317.862,137.007L317.862,143.655L326.516,143.655L326.516,145.863L317.862,145.863L317.862,152.655L327.891,152.655L327.891,154.863L315.367,154.863Z" style="fill:rgb(146,150,152);fill-rule:nonzero;"/>
        <path d="M331.528,148.071L331.528,141.594C331.528,137.034 334.367,134.37 339.21,134.37C341.302,134.37 343.021,134.943 344.426,136.118C345.832,137.294 346.518,138.985 346.518,141.192L346.518,141.477L344.025,141.477L344.025,141.192C344.025,139.729 343.538,138.611 342.564,137.839C341.618,137.064 340.47,136.663 339.181,136.663C335.828,136.663 334.023,138.412 334.023,141.42L334.023,148.242C334.023,151.252 335.828,153.001 339.181,153.001C340.47,153.001 341.618,152.599 342.564,151.825C343.538,151.051 344.025,149.933 344.025,148.471L344.025,148.184L346.518,148.184L346.518,148.471C346.518,150.679 345.832,152.37 344.426,153.543C343.021,154.719 341.302,155.292 339.21,155.292C334.367,155.292 331.528,152.627 331.528,148.071Z" style="fill:rgb(146,150,152);fill-rule:nonzero;"/>
        <path d="M350.983,154.863L350.983,134.799L353.478,134.799L353.478,143.685L363.25,143.685L363.25,134.799L365.746,134.799L365.746,154.863L363.25,154.863L363.25,145.893L353.478,145.893L353.478,154.863L350.983,154.863Z" style="fill:rgb(146,150,152);fill-rule:nonzero;"/>
        <path d="M374.167,147.412L381.304,147.412L377.75,138.124L374.167,147.412ZM369.065,154.863L369.065,154.033L376.545,134.799L379.039,134.799L386.547,154.033L386.547,154.863L384.084,154.863L382.077,149.532L373.421,149.532L371.358,154.863L369.065,154.863Z" style="fill:rgb(146,150,152);fill-rule:nonzero;"/>
        <path d="M389.867,154.863L389.867,134.799L392.16,134.799L402.134,150.248L402.134,134.799L404.629,134.799L404.629,154.863L402.335,154.863L392.362,139.444L392.362,154.863L389.867,154.863Z" style="fill:rgb(146,150,152);fill-rule:nonzero;"/>
        <rect x="409.952" y="134.799" width="2.495" height="20.064" style="fill:rgb(146,150,152);fill-rule:nonzero;"/>
        <path d="M417.202,148.071L417.202,141.594C417.202,137.034 420.04,134.37 424.884,134.37C426.976,134.37 428.695,134.943 430.1,136.118C431.505,137.294 432.192,138.985 432.192,141.192L432.192,141.477L429.699,141.477L429.699,141.192C429.699,139.729 429.211,138.611 428.238,137.839C427.292,137.064 426.144,136.663 424.854,136.663C421.5,136.663 419.695,138.412 419.695,141.42L419.695,148.242C419.695,151.252 421.5,153.001 424.854,153.001C426.144,153.001 427.292,152.599 428.238,151.825C429.211,151.051 429.699,149.933 429.699,148.471L429.699,148.184L432.192,148.184L432.192,148.471C432.192,150.679 431.505,152.37 430.1,153.543C428.695,154.719 426.976,155.292 424.884,155.292C420.04,155.292 417.202,152.627 417.202,148.071Z" style="fill:rgb(146,150,152);fill-rule:nonzero;"/>
        <path d="M435.223,154.863L435.223,152.685L446.173,137.007L435.625,137.007L435.625,134.799L449.04,134.799L449.04,136.949L438.089,152.655L449.326,152.655L449.326,154.863L435.223,154.863Z" style="fill:rgb(146,150,152);fill-rule:nonzero;"/>
        <path d="M453.189,154.863L453.189,134.799L455.483,134.799L465.457,150.248L465.457,134.799L467.95,134.799L467.95,154.863L465.658,154.863L455.684,139.444L455.684,154.863L453.189,154.863Z" style="fill:rgb(146,150,152);fill-rule:nonzero;"/>
        <path d="M478.093,154.863L478.093,146.895L470.986,135.631L470.986,134.799L473.451,134.799L479.355,144.402L485.401,134.799L487.667,134.799L487.667,135.631L480.586,146.809L480.586,154.863L478.093,154.863Z" style="fill:rgb(146,150,152);fill-rule:nonzero;"/>
        <path class="sign" d="M67.761,149.486L54.731,149.486L54.661,50.09L67.761,50.09L67.761,42.09L46.655,42.09L46.735,157.486L67.761,157.486L67.761,149.486Z" style="fill:rgb(243,145,60);fill-rule:nonzero;"/>
        <path class="sign" d="M172.149,42.09L155.556,58.624L138.972,42.09L75.594,42.09L75.594,50.09L135.666,50.09L149.909,64.29L155.555,69.92L161.204,64.291L175.454,50.09L256.463,50.09L256.463,149.486L220.537,149.486L220.537,126.407L192.998,126.407L192.998,149.486L118.124,149.486L118.124,126.407L90.583,126.407L90.583,149.486L75.594,149.486L75.594,157.486L98.583,157.486L98.583,134.407L110.124,134.407L110.124,157.486L200.998,157.486L200.998,134.407L212.537,134.407L212.537,157.486L264.464,157.486L264.464,42.09L172.149,42.09Z" style="fill:rgb(243,145,60);fill-rule:nonzero;"/>
    </g>
</svg>
