<?xml version="1.0" encoding="UTF-8" standalone="no"?>
<!DOCTYPE svg PUBLIC "-//W3C//DTD SVG 1.1//EN" "http://www.w3.org/Graphics/SVG/1.1/DTD/svg11.dtd">
<svg width="100%" height="100%" viewBox="0 0 2084 481" version="1.1" xmlns="http://www.w3.org/2000/svg" xmlns:xlink="http://www.w3.org/1999/xlink" xml:space="preserve" xmlns:serif="http://www.serif.com/" style="fill-rule:evenodd;clip-rule:evenodd;stroke-linejoin:round;stroke-miterlimit:2;">
    <g transform="matrix(4.16667,0,0,4.16667,-190.558,-187.875)">
        <path d="M294.189,58.026L299.662,58.026C301.726,58.026 303.073,56.62 303.073,54.213C303.073,51.779 301.726,50.373 299.662,50.373L294.189,50.373L294.189,58.026ZM291.694,68.23L291.694,48.165L300.093,48.165C303.532,48.165 305.624,50.517 305.624,54.213C305.624,57.912 303.532,60.234 300.093,60.234L294.189,60.234L294.189,68.23L291.694,68.23Z" style="fill:rgb(35,31,32);fill-rule:nonzero;"/>
        <path d="M322.013,61.58L322.013,54.816C322.013,51.95 320.092,50.03 316.797,50.03C313.472,50.03 311.582,51.95 311.582,54.816L311.582,61.58C311.582,64.447 313.472,66.368 316.797,66.368C320.092,66.368 322.013,64.447 322.013,61.58ZM309.086,54.93C309.086,50.431 312.069,47.737 316.797,47.737C321.526,47.737 324.508,50.431 324.508,54.93L324.508,61.465C324.508,65.966 321.526,68.659 316.797,68.659C312.069,68.659 309.086,65.966 309.086,61.465L309.086,54.93Z" style="fill:rgb(35,31,32);fill-rule:nonzero;"/>
        <path d="M329.257,68.23L329.257,48.165L331.753,48.165L331.753,66.022L342.012,66.022L342.012,68.23L329.257,68.23Z" style="fill:rgb(35,31,32);fill-rule:nonzero;"/>
        <rect x="345.332" y="48.165" width="2.495" height="20.065" style="fill:rgb(35,31,32);fill-rule:nonzero;"/>
        <path d="M357.253,68.23L357.253,50.373L351.148,50.373L351.148,48.165L365.823,48.165L365.823,50.373L359.747,50.373L359.747,68.23L357.253,68.23Z" style="fill:rgb(35,31,32);fill-rule:nonzero;"/>
        <path d="M369.144,68.23L369.144,48.165L381.641,48.165L381.641,50.373L371.639,50.373L371.639,57.022L380.293,57.022L380.293,59.229L371.639,59.229L371.639,66.022L381.668,66.022L381.668,68.23L369.144,68.23Z" style="fill:rgb(35,31,32);fill-rule:nonzero;"/>
        <path d="M385.305,61.437L385.305,54.959C385.305,50.401 388.144,47.737 392.988,47.737C395.08,47.737 396.798,48.309 398.204,49.485C399.609,50.66 400.295,52.351 400.295,54.559L400.295,54.844L397.802,54.844L397.802,54.559C397.802,53.095 397.316,51.978 396.341,51.205C395.395,50.431 394.248,50.03 392.958,50.03C389.605,50.03 387.8,51.779 387.8,54.786L387.8,61.609C387.8,64.618 389.605,66.368 392.958,66.368C394.248,66.368 395.395,65.966 396.341,65.192C397.316,64.417 397.802,63.299 397.802,61.838L397.802,61.55L400.295,61.55L400.295,61.838C400.295,64.046 399.609,65.737 398.204,66.909C396.798,68.085 395.08,68.659 392.988,68.659C388.144,68.659 385.305,65.993 385.305,61.437Z" style="fill:rgb(35,31,32);fill-rule:nonzero;"/>
        <path d="M404.76,68.23L404.76,48.165L407.255,48.165L407.255,57.052L417.028,57.052L417.028,48.165L419.523,48.165L419.523,68.23L417.028,68.23L417.028,59.259L407.255,59.259L407.255,68.23L404.76,68.23Z" style="fill:rgb(35,31,32);fill-rule:nonzero;"/>
        <path d="M424.845,68.23L424.845,48.165L427.139,48.165L437.113,63.615L437.113,48.165L439.608,48.165L439.608,68.23L437.315,68.23L427.34,52.81L427.34,68.23L424.845,68.23Z" style="fill:rgb(35,31,32);fill-rule:nonzero;"/>
        <rect x="444.931" y="48.165" width="2.495" height="20.065" style="fill:rgb(35,31,32);fill-rule:nonzero;"/>
        <path d="M452.753,68.23L452.753,48.165L455.249,48.165L455.249,57.052L458.458,57.052L464.277,48.165L466.598,48.165L466.598,48.997L460.635,58.026L466.971,67.399L466.971,68.23L464.505,68.23L458.486,59.259L455.249,59.259L455.249,68.23L452.753,68.23Z" style="fill:rgb(35,31,32);fill-rule:nonzero;"/>
        <path d="M473.386,60.779L480.524,60.779L476.969,51.491L473.386,60.779ZM468.284,68.23L468.284,67.399L475.765,48.165L478.258,48.165L485.767,67.399L485.767,68.23L483.304,68.23L481.296,62.898L472.641,62.898L470.578,68.23L468.284,68.23Z" style="fill:rgb(35,31,32);fill-rule:nonzero;"/>
        <path d="M291.694,98.107L291.694,78.042L294.189,78.042L294.189,95.899L304.448,95.899L304.448,98.107L291.694,98.107Z" style="fill:rgb(35,31,32);fill-rule:nonzero;"/>
        <path d="M309.23,96.701C307.883,95.47 307.197,93.78 307.197,91.572L307.197,78.042L309.69,78.042L309.69,91.658C309.69,94.438 311.524,96.244 314.591,96.244C317.658,96.244 319.464,94.495 319.464,91.658L319.464,78.042L321.957,78.042L321.957,91.572C321.957,93.749 321.268,95.47 319.92,96.701C318.576,97.935 316.797,98.535 314.591,98.535C312.384,98.535 310.578,97.935 309.23,96.701Z" style="fill:rgb(35,31,32);fill-rule:nonzero;"/>
        <path d="M329.49,95.899L335.71,95.899C337.887,95.899 339.09,94.667 339.09,92.49C339.09,90.283 337.887,89.021 335.71,89.021L329.49,89.021L329.49,95.899ZM329.49,86.899L335.048,86.899C337.142,86.899 338.316,85.667 338.316,83.576C338.316,81.426 337.17,80.25 334.993,80.25L329.49,80.25L329.49,86.899ZM326.995,98.107L326.995,78.042L335.421,78.042C338.833,78.042 340.811,79.877 340.811,83.318C340.811,85.468 339.951,86.929 338.202,87.673C340.465,88.332 341.584,89.967 341.584,92.631C341.584,96.159 339.549,98.107 336.138,98.107L326.995,98.107Z" style="fill:rgb(35,31,32);fill-rule:nonzero;"/>
        <path d="M345.762,98.107L345.762,78.042L358.26,78.042L358.26,80.25L348.258,80.25L348.258,86.899L356.913,86.899L356.913,89.107L348.258,89.107L348.258,95.899L358.288,95.899L358.288,98.107L345.762,98.107Z" style="fill:rgb(35,31,32);fill-rule:nonzero;"/>
        <path d="M362.497,98.107L362.497,78.042L364.993,78.042L364.993,95.899L375.251,95.899L375.251,98.107L362.497,98.107Z" style="fill:rgb(35,31,32);fill-rule:nonzero;"/>
        <path d="M379.231,96.759C377.743,95.583 376.996,93.866 376.996,91.6L379.491,91.6C379.491,95.126 382.443,96.244 384.85,96.244C387.716,96.244 389.322,94.925 389.322,93.005C389.322,92.145 388.976,91.458 388.29,90.971C387.601,90.453 386.425,89.881 384.735,89.25L383.301,88.734C381.267,88.019 379.835,87.244 378.946,86.47C378.058,85.696 377.626,84.577 377.626,83.144C377.626,79.822 380.263,77.614 384.536,77.614C388.92,77.614 391.815,79.791 391.815,84.378L389.322,84.378C389.322,81.31 387.286,79.907 384.505,79.907C381.84,79.907 380.12,81.168 380.12,82.973C380.12,83.861 380.435,84.522 381.038,85.009C381.639,85.495 382.756,86.011 384.334,86.556L385.681,87.042C387.745,87.817 388.804,88.246 390.066,89.164C391.355,90.08 391.959,91.284 391.959,92.891C391.959,96.214 389.349,98.535 384.735,98.535C382.557,98.535 380.722,97.935 379.231,96.759Z" style="fill:rgb(35,31,32);fill-rule:nonzero;"/>
        <path d="M396.422,98.107L396.422,78.042L398.918,78.042L398.918,86.929L402.127,86.929L407.946,78.042L410.267,78.042L410.267,78.875L404.305,87.903L410.64,97.277L410.64,98.107L408.175,98.107L402.156,89.137L398.918,89.137L398.918,98.107L396.422,98.107Z" style="fill:rgb(35,31,32);fill-rule:nonzero;"/>
        <path d="M417.053,90.656L424.191,90.656L420.636,81.368L417.053,90.656ZM411.952,98.107L411.952,97.277L419.432,78.042L421.925,78.042L429.435,97.277L429.435,98.107L426.971,98.107L424.963,92.775L416.309,92.775L414.245,98.107L411.952,98.107Z" style="fill:rgb(35,31,32);fill-rule:nonzero;"/>
        <path d="M294.216,127.985L290.26,108.754L290.26,107.922L292.725,107.922L295.907,124.002L300.007,113.598L301.582,113.598L305.74,124.059L308.891,107.922L311.213,107.922L311.213,108.754L307.258,127.985L304.908,127.985L300.751,117.409L296.568,127.985L294.216,127.985Z" style="fill:rgb(146,150,152);fill-rule:nonzero;"/>
        <path d="M319.918,127.985L319.918,120.017L312.811,108.754L312.811,107.922L315.276,107.922L321.18,117.524L327.226,107.922L329.492,107.922L329.492,108.754L322.412,119.932L322.412,127.985L319.918,127.985Z" style="fill:rgb(146,150,152);fill-rule:nonzero;"/>
        <path d="M335.048,125.778L339.547,125.778C342.842,125.778 344.765,123.916 344.765,121.05L344.765,114.857C344.765,111.991 342.842,110.13 339.547,110.13L335.048,110.13L335.048,125.778ZM332.553,127.985L332.553,107.922L339.547,107.922C344.276,107.922 347.258,110.473 347.258,114.916L347.258,120.991C347.258,125.434 344.276,127.985 339.547,127.985L332.553,127.985Z" style="fill:rgb(146,150,152);fill-rule:nonzero;"/>
        <path d="M350.575,127.985L350.575,125.808L361.525,110.13L350.976,110.13L350.976,107.922L364.391,107.922L364.391,110.071L353.441,125.778L364.677,125.778L364.677,127.985L350.575,127.985Z" style="fill:rgb(146,150,152);fill-rule:nonzero;"/>
        <rect x="368.541" y="107.922" width="2.495" height="20.063" style="fill:rgb(146,150,152);fill-rule:nonzero;"/>
        <path d="M379.459,120.535L386.597,120.535L383.042,111.247L379.459,120.535ZM374.357,127.985L374.357,127.155L381.838,107.922L384.332,107.922L391.84,127.155L391.84,127.985L389.377,127.985L387.369,122.654L378.714,122.654L376.651,127.985L374.357,127.985Z" style="fill:rgb(146,150,152);fill-rule:nonzero;"/>
        <path d="M396.307,127.985L396.307,120.849L394.072,122.568L393.183,122.568L393.183,120.535L396.307,118.155L396.307,107.922L398.8,107.922L398.8,116.235L403.157,112.824L404.045,112.824L404.045,114.888L398.8,118.958L398.8,125.778L409.061,125.778L409.061,127.985L396.307,127.985Z" style="fill:rgb(146,150,152);fill-rule:nonzero;"/>
        <path d="M420.864,117.782L426.336,117.782C428.401,117.782 429.748,116.377 429.748,113.97C429.748,111.534 428.401,110.13 426.336,110.13L420.864,110.13L420.864,117.782ZM418.369,127.985L418.369,107.922L426.768,107.922C430.207,107.922 432.298,110.273 432.298,113.97C432.298,117.668 430.207,119.989 426.768,119.989L420.864,119.989L420.864,127.985L418.369,127.985Z" style="fill:rgb(146,150,152);fill-rule:nonzero;"/>
        <path d="M448.688,121.337L448.688,114.572C448.688,111.706 446.767,109.786 443.472,109.786C440.147,109.786 438.256,111.706 438.256,114.572L438.256,121.337C438.256,124.203 440.147,126.123 443.472,126.123C446.767,126.123 448.688,124.203 448.688,121.337ZM435.762,114.686C435.762,110.187 438.744,107.493 443.472,107.493C448.201,107.493 451.183,110.187 451.183,114.686L451.183,121.222C451.183,125.723 448.201,128.415 443.472,128.415C438.744,128.415 435.762,125.723 435.762,121.222L435.762,114.686Z" style="fill:rgb(146,150,152);fill-rule:nonzero;"/>
        <path d="M458.43,125.778L462.929,125.778C466.224,125.778 468.147,123.916 468.147,121.05L468.147,114.857C468.147,111.991 466.224,110.13 462.929,110.13L458.43,110.13L458.43,125.778ZM455.935,127.985L455.935,107.922L462.929,107.922C467.658,107.922 470.64,110.473 470.64,114.916L470.64,120.991C470.64,125.434 467.658,127.985 462.929,127.985L455.935,127.985Z" style="fill:rgb(146,150,152);fill-rule:nonzero;"/>
        <path d="M476.335,126.639C474.847,125.463 474.1,123.744 474.1,121.478L476.595,121.478C476.595,125.006 479.547,126.123 481.955,126.123C484.821,126.123 486.426,124.804 486.426,122.884C486.426,122.023 486.081,121.337 485.394,120.849C484.706,120.333 483.53,119.76 481.839,119.129L480.406,118.612C478.372,117.895 476.939,117.123 476.05,116.348C475.163,115.574 474.731,114.457 474.731,113.023C474.731,109.7 477.368,107.493 481.639,107.493C486.025,107.493 488.918,109.67 488.918,114.257L486.426,114.257C486.426,111.189 484.39,109.786 481.609,109.786C478.945,109.786 477.224,111.048 477.224,112.851C477.224,113.74 477.54,114.401 478.142,114.888C478.743,115.375 479.861,115.89 481.438,116.434L482.785,116.922C484.849,117.696 485.909,118.125 487.17,119.044C488.46,119.96 489.063,121.163 489.063,122.77C489.063,126.094 486.454,128.415 481.839,128.415C479.662,128.415 477.827,127.814 476.335,126.639Z" style="fill:rgb(146,150,152);fill-rule:nonzero;"/>
        <path d="M497.627,127.985L497.627,110.13L491.521,110.13L491.521,107.922L506.196,107.922L506.196,110.13L500.121,110.13L500.121,127.985L497.627,127.985Z" style="fill:rgb(146,150,152);fill-rule:nonzero;"/>
        <path d="M511.036,120.535L518.174,120.535L514.619,111.247L511.036,120.535ZM505.934,127.985L505.934,127.155L513.416,107.922L515.909,107.922L523.417,127.155L523.417,127.985L520.955,127.985L518.947,122.654L510.292,122.654L508.228,127.985L505.934,127.985Z" style="fill:rgb(146,150,152);fill-rule:nonzero;"/>
        <path d="M528.687,127.985L524.73,108.754L524.73,107.922L527.196,107.922L530.377,124.002L534.477,113.598L536.051,113.598L540.209,124.059L543.362,107.922L545.682,107.922L545.682,108.754L541.729,127.985L539.377,127.985L535.221,117.409L531.038,127.985L528.687,127.985Z" style="fill:rgb(146,150,152);fill-rule:nonzero;"/>
        <path d="M295.793,157.863L295.793,140.007L289.687,140.007L289.687,137.799L304.362,137.799L304.362,140.007L298.287,140.007L298.287,157.863L295.793,157.863Z" style="fill:rgb(146,150,152);fill-rule:nonzero;"/>
        <path d="M307.681,157.863L307.681,137.799L320.178,137.799L320.178,140.007L310.176,140.007L310.176,146.655L318.831,146.655L318.831,148.863L310.176,148.863L310.176,155.655L320.207,155.655L320.207,157.863L307.681,157.863Z" style="fill:rgb(146,150,152);fill-rule:nonzero;"/>
        <path d="M323.843,151.07L323.843,144.594C323.843,140.034 326.681,137.37 331.526,137.37C333.618,137.37 335.335,137.942 336.741,139.118C338.146,140.294 338.833,141.984 338.833,144.192L338.833,144.477L336.34,144.477L336.34,144.192C336.34,142.729 335.853,141.611 334.878,140.839C333.933,140.064 332.785,139.663 331.496,139.663C328.142,139.663 326.337,141.412 326.337,144.42L326.337,151.242C326.337,154.252 328.142,156.001 331.496,156.001C332.785,156.001 333.933,155.599 334.878,154.825C335.853,154.051 336.34,152.932 336.34,151.472L336.34,151.184L338.833,151.184L338.833,151.472C338.833,153.68 338.146,155.37 336.741,156.544C335.335,157.72 333.618,158.292 331.526,158.292C326.681,158.292 323.843,155.628 323.843,151.07Z" style="fill:rgb(146,150,152);fill-rule:nonzero;"/>
        <path d="M343.297,157.863L343.297,137.799L345.793,137.799L345.793,146.685L355.565,146.685L355.565,137.799L358.06,137.799L358.06,157.863L355.565,157.863L355.565,148.892L345.793,148.892L345.793,157.863L343.297,157.863Z" style="fill:rgb(146,150,152);fill-rule:nonzero;"/>
        <path d="M363.385,157.863L363.385,137.799L365.679,137.799L375.653,153.248L375.653,137.799L378.146,137.799L378.146,157.863L375.855,157.863L365.88,142.443L365.88,157.863L363.385,157.863Z" style="fill:rgb(146,150,152);fill-rule:nonzero;"/>
        <rect x="383.471" y="137.799" width="2.495" height="20.064" style="fill:rgb(146,150,152);fill-rule:nonzero;"/>
        <path d="M391.293,157.863L391.293,137.799L393.789,137.799L393.789,146.685L396.998,146.685L402.816,137.799L405.137,137.799L405.137,138.632L399.175,147.659L405.511,157.033L405.511,157.863L403.045,157.863L397.026,148.892L393.789,148.892L393.789,157.863L391.293,157.863Z" style="fill:rgb(146,150,152);fill-rule:nonzero;"/>
        <rect x="408.828" y="137.799" width="2.495" height="20.064" style="fill:rgb(146,150,152);fill-rule:nonzero;"/>
        <path class="sign" d="M67.614,152.485L53.734,152.485L53.734,53.09L67.614,53.09L67.614,45.09L45.734,45.09L45.734,160.485L67.614,160.485L67.614,152.485Z" style="fill:rgb(241,95,50);fill-rule:nonzero;"/>
        <path class="sign" d="M138.051,45.09L75.447,45.09L75.447,53.09L134.737,53.09L141.59,59.944L141.59,134.093L134.737,140.946L89.662,140.946L89.662,152.485L75.447,152.485L75.447,160.485L97.662,160.485L97.662,148.946L138.051,148.946L149.59,137.406L149.59,56.63L138.051,45.09Z" style="fill:rgb(241,95,50);fill-rule:nonzero;"/>
        <path class="sign" d="M192.335,160.485L192.335,152.485L179.458,152.485L179.458,60.169L167.918,60.169L167.918,53.09L192.335,53.09L192.335,45.09L159.918,45.09L159.918,68.169L171.458,68.169L171.458,160.485L192.335,160.485Z" style="fill:rgb(241,95,50);fill-rule:nonzero;"/>
        <path class="sign" d="M200.168,45.09L200.168,53.09L255.774,53.09L255.774,60.169L244.234,60.169L244.234,152.485L200.168,152.485L200.168,160.485L252.234,160.485L252.234,68.169L263.774,68.169L263.774,45.09L200.168,45.09Z" style="fill:rgb(241,95,50);fill-rule:nonzero;"/>
    </g>
</svg>
