<?xml version="1.0" encoding="UTF-8" standalone="no"?>
<!DOCTYPE svg PUBLIC "-//W3C//DTD SVG 1.1//EN" "http://www.w3.org/Graphics/SVG/1.1/DTD/svg11.dtd">
<svg width="100%" height="100%" viewBox="0 0 2557 481" version="1.1" xmlns="http://www.w3.org/2000/svg" xmlns:xlink="http://www.w3.org/1999/xlink" xml:space="preserve" xmlns:serif="http://www.serif.com/" style="fill-rule:evenodd;clip-rule:evenodd;stroke-linejoin:round;stroke-miterlimit:2;">
    <g transform="matrix(4.16667,0,0,4.16667,-192.4,-187.875)">
        <path d="M294.63,58.026L300.103,58.026C302.168,58.026 303.514,56.621 303.514,54.213C303.514,51.778 302.168,50.373 300.103,50.373L294.63,50.373L294.63,58.026ZM292.135,68.229L292.135,48.166L300.535,48.166C303.973,48.166 306.065,50.516 306.065,54.213C306.065,57.912 303.973,60.233 300.535,60.233L294.63,60.233L294.63,68.229L292.135,68.229Z" style="fill:rgb(35,31,32);fill-rule:nonzero;"/>
        <path d="M322.455,61.581L322.455,54.816C322.455,51.95 320.535,50.03 317.239,50.03C313.914,50.03 312.023,51.95 312.023,54.816L312.023,61.581C312.023,64.447 313.914,66.367 317.239,66.367C320.535,66.367 322.455,64.447 322.455,61.581ZM309.528,54.93C309.528,50.431 312.51,47.736 317.239,47.736C321.967,47.736 324.95,50.431 324.95,54.93L324.95,61.464C324.95,65.966 321.967,68.659 317.239,68.659C312.51,68.659 309.528,65.966 309.528,61.464L309.528,54.93Z" style="fill:rgb(35,31,32);fill-rule:nonzero;"/>
        <path d="M329.7,68.229L329.7,48.166L332.195,48.166L332.195,66.022L342.454,66.022L342.454,68.229L329.7,68.229Z" style="fill:rgb(35,31,32);fill-rule:nonzero;"/>
        <rect x="345.773" y="48.166" width="2.495" height="20.063" style="fill:rgb(35,31,32);fill-rule:nonzero;"/>
        <path d="M357.695,68.229L357.695,50.373L351.589,50.373L351.589,48.166L366.264,48.166L366.264,50.373L360.188,50.373L360.188,68.229L357.695,68.229Z" style="fill:rgb(35,31,32);fill-rule:nonzero;"/>
        <path d="M369.585,68.229L369.585,48.166L382.083,48.166L382.083,50.373L372.081,50.373L372.081,57.022L380.735,57.022L380.735,59.229L372.081,59.229L372.081,66.022L382.11,66.022L382.11,68.229L369.585,68.229Z" style="fill:rgb(35,31,32);fill-rule:nonzero;"/>
        <path d="M385.747,61.437L385.747,54.96C385.747,50.401 388.585,47.736 393.429,47.736C395.521,47.736 397.24,48.309 398.645,49.485C400.05,50.661 400.737,52.351 400.737,54.559L400.737,54.844L398.244,54.844L398.244,54.559C398.244,53.095 397.757,51.978 396.783,51.206C395.836,50.431 394.689,50.03 393.4,50.03C390.046,50.03 388.242,51.778 388.242,54.786L388.242,61.609C388.242,64.619 390.046,66.367 393.4,66.367C394.689,66.367 395.836,65.966 396.783,65.191C397.757,64.417 398.244,63.299 398.244,61.838L398.244,61.55L400.737,61.55L400.737,61.838C400.737,64.046 400.05,65.737 398.645,66.91C397.24,68.086 395.521,68.659 393.429,68.659C388.585,68.659 385.747,65.994 385.747,61.437Z" style="fill:rgb(35,31,32);fill-rule:nonzero;"/>
        <path d="M405.202,68.229L405.202,48.166L407.697,48.166L407.697,57.051L417.469,57.051L417.469,48.166L419.964,48.166L419.964,68.229L417.469,68.229L417.469,59.259L407.697,59.259L407.697,68.229L405.202,68.229Z" style="fill:rgb(35,31,32);fill-rule:nonzero;"/>
        <path d="M425.287,68.229L425.287,48.166L427.581,48.166L437.554,63.615L437.554,48.166L440.049,48.166L440.049,68.229L437.756,68.229L427.782,52.81L427.782,68.229L425.287,68.229Z" style="fill:rgb(35,31,32);fill-rule:nonzero;"/>
        <rect x="445.373" y="48.166" width="2.495" height="20.063" style="fill:rgb(35,31,32);fill-rule:nonzero;"/>
        <path d="M453.195,68.229L453.195,48.166L455.69,48.166L455.69,57.051L458.9,57.051L464.718,48.166L467.04,48.166L467.04,48.998L461.077,58.026L467.413,67.399L467.413,68.229L464.948,68.229L458.927,59.259L455.69,59.259L455.69,68.229L453.195,68.229Z" style="fill:rgb(35,31,32);fill-rule:nonzero;"/>
        <path d="M473.828,60.778L480.965,60.778L477.411,51.491L473.828,60.778ZM468.726,68.229L468.726,67.399L476.207,48.166L478.7,48.166L486.208,67.399L486.208,68.229L483.746,68.229L481.738,62.898L473.083,62.898L471.019,68.229L468.726,68.229Z" style="fill:rgb(35,31,32);fill-rule:nonzero;"/>
        <path d="M292.135,98.107L292.135,78.043L294.63,78.043L294.63,95.899L304.89,95.899L304.89,98.107L292.135,98.107Z" style="fill:rgb(35,31,32);fill-rule:nonzero;"/>
        <path d="M309.671,96.702C308.325,95.47 307.638,93.779 307.638,91.572L307.638,78.043L310.131,78.043L310.131,91.658C310.131,94.438 311.965,96.245 315.034,96.245C318.099,96.245 319.906,94.496 319.906,91.658L319.906,78.043L322.399,78.043L322.399,91.572C322.399,93.75 321.709,95.47 320.363,96.702C319.017,97.935 317.239,98.536 315.034,98.536C312.826,98.536 311.019,97.935 309.671,96.702Z" style="fill:rgb(35,31,32);fill-rule:nonzero;"/>
        <path d="M329.931,95.899L336.151,95.899C338.329,95.899 339.532,94.668 339.532,92.49C339.532,90.282 338.329,89.021 336.151,89.021L329.931,89.021L329.931,95.899ZM329.931,86.899L335.49,86.899C337.583,86.899 338.757,85.668 338.757,83.576C338.757,81.426 337.612,80.251 335.434,80.251L329.931,80.251L329.931,86.899ZM327.436,98.107L327.436,78.043L335.863,78.043C339.274,78.043 341.252,79.877 341.252,83.318C341.252,85.468 340.392,86.929 338.644,87.673C340.907,88.332 342.025,89.967 342.025,92.631C342.025,96.159 339.991,98.107 336.58,98.107L327.436,98.107Z" style="fill:rgb(35,31,32);fill-rule:nonzero;"/>
        <path d="M346.205,98.107L346.205,78.043L358.702,78.043L358.702,80.251L348.7,80.251L348.7,86.899L357.354,86.899L357.354,89.107L348.7,89.107L348.7,95.899L358.729,95.899L358.729,98.107L346.205,98.107Z" style="fill:rgb(35,31,32);fill-rule:nonzero;"/>
        <path d="M362.939,98.107L362.939,78.043L365.434,78.043L365.434,95.899L375.693,95.899L375.693,98.107L362.939,98.107Z" style="fill:rgb(35,31,32);fill-rule:nonzero;"/>
        <path d="M379.673,96.759C378.184,95.584 377.437,93.865 377.437,91.599L379.933,91.599C379.933,95.127 382.884,96.245 385.292,96.245C388.158,96.245 389.763,94.925 389.763,93.004C389.763,92.144 389.417,91.458 388.731,90.971C388.042,90.454 386.867,89.881 385.176,89.251L383.743,88.733C381.709,88.019 380.276,87.245 379.387,86.47C378.5,85.695 378.068,84.578 378.068,83.144C378.068,79.821 380.705,77.614 384.976,77.614C389.362,77.614 392.255,79.791 392.255,84.379L389.763,84.379C389.763,81.31 387.727,79.907 384.947,79.907C382.282,79.907 380.561,81.169 380.561,82.973C380.561,83.861 380.876,84.522 381.479,85.008C382.081,85.496 383.198,86.01 384.775,86.555L386.123,87.043C388.186,87.817 389.246,88.247 390.507,89.165C391.797,90.081 392.4,91.285 392.4,92.891C392.4,96.214 389.791,98.536 385.176,98.536C382.999,98.536 381.164,97.935 379.673,96.759Z" style="fill:rgb(35,31,32);fill-rule:nonzero;"/>
        <path d="M396.865,98.107L396.865,78.043L399.359,78.043L399.359,86.929L402.569,86.929L408.387,78.043L410.708,78.043L410.708,78.876L404.747,87.903L411.083,97.276L411.083,98.107L408.617,98.107L402.597,89.136L399.359,89.136L399.359,98.107L396.865,98.107Z" style="fill:rgb(35,31,32);fill-rule:nonzero;"/>
        <path d="M417.495,90.656L424.632,90.656L421.078,81.368L417.495,90.656ZM412.393,98.107L412.393,97.276L419.874,78.043L422.367,78.043L429.876,97.276L429.876,98.107L427.414,98.107L425.405,92.775L416.75,92.775L414.686,98.107L412.393,98.107Z" style="fill:rgb(35,31,32);fill-rule:nonzero;"/>
        <path d="M294.658,127.985L290.702,108.754L290.702,107.922L293.167,107.922L296.349,124.002L300.449,113.599L302.023,113.599L306.181,124.06L309.333,107.922L311.654,107.922L311.654,108.754L307.701,127.985L305.349,127.985L301.193,117.408L297.009,127.985L294.658,127.985Z" style="fill:rgb(146,150,152);fill-rule:nonzero;"/>
        <path d="M320.361,127.985L320.361,120.018L313.252,108.754L313.252,107.922L315.717,107.922L321.622,117.525L327.667,107.922L329.933,107.922L329.933,108.754L322.853,119.932L322.853,127.985L320.361,127.985Z" style="fill:rgb(146,150,152);fill-rule:nonzero;"/>
        <path d="M335.49,125.778L339.989,125.778C343.285,125.778 345.207,123.916 345.207,121.05L345.207,114.858C345.207,111.991 343.285,110.129 339.989,110.129L335.49,110.129L335.49,125.778ZM332.995,127.985L332.995,107.922L339.989,107.922C344.717,107.922 347.7,110.473 347.7,114.916L347.7,120.991C347.7,125.435 344.717,127.985 339.989,127.985L332.995,127.985Z" style="fill:rgb(146,150,152);fill-rule:nonzero;"/>
        <path d="M351.016,127.985L351.016,125.808L361.966,110.129L351.417,110.129L351.417,107.922L364.833,107.922L364.833,110.071L353.882,125.778L365.119,125.778L365.119,127.985L351.016,127.985Z" style="fill:rgb(146,150,152);fill-rule:nonzero;"/>
        <rect x="368.982" y="107.922" width="2.495" height="20.063" style="fill:rgb(146,150,152);fill-rule:nonzero;"/>
        <path d="M379.9,120.534L387.039,120.534L383.483,111.247L379.9,120.534ZM374.798,127.985L374.798,127.155L382.28,107.922L384.773,107.922L392.282,127.155L392.282,127.985L389.819,127.985L387.811,122.654L379.156,122.654L377.092,127.985L374.798,127.985Z" style="fill:rgb(146,150,152);fill-rule:nonzero;"/>
        <path d="M396.749,127.985L396.749,120.85L394.513,122.568L393.625,122.568L393.625,120.534L396.749,118.155L396.749,107.922L399.242,107.922L399.242,116.235L403.599,112.824L404.487,112.824L404.487,114.888L399.242,118.958L399.242,125.778L409.503,125.778L409.503,127.985L396.749,127.985Z" style="fill:rgb(146,150,152);fill-rule:nonzero;"/>
        <path d="M418.81,127.985L418.81,107.922L431.307,107.922L431.307,110.129L421.305,110.129L421.305,116.778L429.959,116.778L429.959,118.985L421.305,118.985L421.305,125.778L431.334,125.778L431.334,127.985L418.81,127.985Z" style="fill:rgb(146,150,152);fill-rule:nonzero;"/>
        <path d="M435.544,127.985L435.544,107.922L438.04,107.922L438.04,125.778L448.299,125.778L448.299,127.985L435.544,127.985Z" style="fill:rgb(146,150,152);fill-rule:nonzero;"/>
        <path d="M451.62,127.985L451.62,107.922L464.118,107.922L464.118,110.129L454.116,110.129L454.116,116.778L462.77,116.778L462.77,118.985L454.116,118.985L454.116,125.778L464.145,125.778L464.145,127.985L451.62,127.985Z" style="fill:rgb(146,150,152);fill-rule:nonzero;"/>
        <path d="M468.352,127.985L468.352,107.922L470.847,107.922L470.847,116.808L474.057,116.808L479.875,107.922L482.197,107.922L482.197,108.754L476.235,117.782L482.57,127.155L482.57,127.985L480.105,127.985L474.084,119.016L470.847,119.016L470.847,127.985L468.352,127.985Z" style="fill:rgb(146,150,152);fill-rule:nonzero;"/>
        <path d="M489.989,127.985L489.989,110.129L483.883,110.129L483.883,107.922L498.558,107.922L498.558,110.129L492.482,110.129L492.482,127.985L489.989,127.985Z" style="fill:rgb(146,150,152);fill-rule:nonzero;"/>
        <path d="M504.372,117.84L509.845,117.84C512.224,117.84 513.543,116.492 513.543,113.97C513.543,111.419 512.31,110.129 509.845,110.129L504.372,110.129L504.372,117.84ZM501.876,127.985L501.876,107.922L510.276,107.922C513.973,107.922 516.094,110.188 516.094,113.97C516.094,116.922 514.805,118.842 512.254,119.733L516.409,127.155L516.409,127.985L513.945,127.985L509.501,120.045L504.372,120.045L504.372,127.985L501.876,127.985Z" style="fill:rgb(146,150,152);fill-rule:nonzero;"/>
        <path d="M532.885,121.337L532.885,114.572C532.885,111.706 530.964,109.786 527.669,109.786C524.344,109.786 522.452,111.706 522.452,114.572L522.452,121.337C522.452,124.203 524.344,126.123 527.669,126.123C530.964,126.123 532.885,124.203 532.885,121.337ZM519.958,114.686C519.958,110.188 522.94,107.492 527.669,107.492C532.398,107.492 535.38,110.188 535.38,114.686L535.38,121.221C535.38,125.723 532.398,128.415 527.669,128.415C522.94,128.415 519.958,125.723 519.958,121.221L519.958,114.686Z" style="fill:rgb(146,150,152);fill-rule:nonzero;"/>
        <path d="M544.23,127.985L544.23,110.129L538.124,110.129L538.124,107.922L552.798,107.922L552.798,110.129L546.723,110.129L546.723,127.985L544.23,127.985Z" style="fill:rgb(146,150,152);fill-rule:nonzero;"/>
        <path d="M556.118,127.985L556.118,107.922L568.615,107.922L568.615,110.129L558.613,110.129L558.613,116.778L567.267,116.778L567.267,118.985L558.613,118.985L558.613,125.778L568.643,125.778L568.643,127.985L556.118,127.985Z" style="fill:rgb(146,150,152);fill-rule:nonzero;"/>
        <path d="M572.279,121.193L572.279,114.716C572.279,110.157 575.118,107.492 579.962,107.492C582.054,107.492 583.772,108.066 585.177,109.241C586.583,110.417 587.269,112.108 587.269,114.315L587.269,114.601L584.777,114.601L584.777,114.315C584.777,112.852 584.29,111.735 583.315,110.962C582.37,110.188 581.221,109.786 579.932,109.786C576.579,109.786 574.774,111.534 574.774,114.542L574.774,121.365C574.774,124.375 576.579,126.123 579.932,126.123C581.221,126.123 582.37,125.723 583.315,124.947C584.29,124.173 584.777,123.056 584.777,121.595L584.777,121.307L587.269,121.307L587.269,121.595C587.269,123.802 586.583,125.492 585.177,126.666C583.772,127.842 582.054,128.415 579.962,128.415C575.118,128.415 572.279,125.75 572.279,121.193Z" style="fill:rgb(146,150,152);fill-rule:nonzero;"/>
        <path d="M591.734,127.985L591.734,107.922L594.229,107.922L594.229,116.808L604.001,116.808L604.001,107.922L606.497,107.922L606.497,127.985L604.001,127.985L604.001,119.016L594.229,119.016L594.229,127.985L591.734,127.985Z" style="fill:rgb(146,150,152);fill-rule:nonzero;"/>
        <path d="M611.82,127.985L611.82,107.922L614.113,107.922L624.087,123.371L624.087,107.922L626.583,107.922L626.583,127.985L624.289,127.985L614.315,112.567L614.315,127.985L611.82,127.985Z" style="fill:rgb(146,150,152);fill-rule:nonzero;"/>
        <rect x="631.905" y="107.922" width="2.495" height="20.063" style="fill:rgb(146,150,152);fill-rule:nonzero;"/>
        <path d="M639.727,127.985L639.727,107.922L642.222,107.922L642.222,116.808L645.432,116.808L651.25,107.922L653.572,107.922L653.572,108.754L647.61,117.782L653.945,127.155L653.945,127.985L651.48,127.985L645.46,119.016L642.222,119.016L642.222,127.985L639.727,127.985Z" style="fill:rgb(146,150,152);fill-rule:nonzero;"/>
        <rect x="657.264" y="107.922" width="2.495" height="20.063" style="fill:rgb(146,150,152);fill-rule:nonzero;"/>
        <rect x="292.135" y="137.799" width="2.495" height="20.064" style="fill:rgb(146,150,152);fill-rule:nonzero;"/>
        <rect x="307.09" y="137.799" width="2.496" height="20.064" style="fill:rgb(146,150,152);fill-rule:nonzero;"/>
        <path d="M314.914,157.863L314.914,137.799L317.207,137.799L327.181,153.248L327.181,137.799L329.676,137.799L329.676,157.863L327.382,157.863L317.408,142.443L317.408,157.863L314.914,157.863Z" style="fill:rgb(146,150,152);fill-rule:nonzero;"/>
        <path d="M335,157.863L335,137.799L347.641,137.799L347.641,140.007L337.524,140.007L337.524,146.799L346.266,146.799L346.266,149.007L337.524,149.007L337.524,157.863L335,157.863Z" style="fill:rgb(146,150,152);fill-rule:nonzero;"/>
        <path d="M363.887,151.214L363.887,144.449C363.887,141.583 361.966,139.663 358.671,139.663C355.346,139.663 353.456,141.583 353.456,144.449L353.456,151.214C353.456,154.08 355.346,156.001 358.671,156.001C361.966,156.001 363.887,154.08 363.887,151.214ZM350.96,144.564C350.96,140.065 353.943,137.37 358.671,137.37C363.4,137.37 366.382,140.065 366.382,144.564L366.382,151.099C366.382,155.6 363.4,158.292 358.671,158.292C353.943,158.292 350.96,155.6 350.96,151.099L350.96,144.564Z" style="fill:rgb(146,150,152);fill-rule:nonzero;"/>
        <path d="M373.627,147.717L379.1,147.717C381.479,147.717 382.799,146.37 382.799,143.847C382.799,141.296 381.565,140.007 379.1,140.007L373.627,140.007L373.627,147.717ZM371.132,157.863L371.132,137.799L379.532,137.799C383.228,137.799 385.35,140.065 385.35,143.847C385.35,146.799 384.058,148.719 381.509,149.61L385.666,157.032L385.666,157.863L383.2,157.863L378.756,149.923L373.627,149.923L373.627,157.863L371.132,157.863Z" style="fill:rgb(146,150,152);fill-rule:nonzero;"/>
        <path d="M389.785,157.863L389.785,137.799L392.194,137.799L398.67,147.975L405.148,137.799L407.469,137.799L407.469,157.863L405.062,157.863L405.062,142.214L399.445,151.04L397.81,151.04L392.194,142.242L392.194,157.863L389.785,157.863Z" style="fill:rgb(146,150,152);fill-rule:nonzero;"/>
        <path d="M415.89,150.412L423.028,150.412L419.473,141.124L415.89,150.412ZM410.789,157.863L410.789,157.032L418.269,137.799L420.762,137.799L428.271,157.032L428.271,157.863L425.808,157.863L423.8,152.531L415.146,152.531L413.082,157.863L410.789,157.863Z" style="fill:rgb(146,150,152);fill-rule:nonzero;"/>
        <path d="M434.114,157.863L434.114,140.007L428.007,140.007L428.007,137.799L442.682,137.799L442.682,140.007L436.606,140.007L436.606,157.863L434.114,157.863Z" style="fill:rgb(146,150,152);fill-rule:nonzero;"/>
        <path d="M451.965,157.863L451.965,149.895L444.858,138.631L444.858,137.799L447.323,137.799L453.227,147.401L459.273,137.799L461.539,137.799L461.539,138.631L454.458,149.809L454.458,157.863L451.965,157.863Z" style="fill:rgb(146,150,152);fill-rule:nonzero;"/>
        <path d="M464.598,157.863L464.598,137.799L467.093,137.799L467.093,146.686L470.302,146.686L476.121,137.799L478.442,137.799L478.442,138.631L472.48,147.659L478.816,157.032L478.816,157.863L476.35,157.863L470.331,148.893L467.093,148.893L467.093,157.863L464.598,157.863Z" style="fill:rgb(146,150,152);fill-rule:nonzero;"/>
        <rect x="482.134" y="137.799" width="2.495" height="20.064" style="fill:rgb(146,150,152);fill-rule:nonzero;"/>
        <path class="sign" d="M150.032,76.824L150.032,45.09L75.46,45.09L75.46,53.09L142.032,53.09L142.032,68.824L118.953,68.824L118.953,96.364L142.032,96.364L142.032,109.212L118.953,109.212L118.953,136.752L142.032,136.752L142.032,152.485L75.46,152.485L75.46,160.485L150.032,160.485L150.032,128.752L126.953,128.752L126.953,117.212L150.032,117.212L150.032,88.364L126.953,88.364L126.953,76.824L150.032,76.824Z" style="fill:rgb(240,186,10);fill-rule:nonzero;"/>
        <path class="sign" d="M67.627,152.485L61.029,152.485L54.176,145.632L54.176,59.944L61.029,53.09L67.627,53.09L67.627,45.09L57.715,45.09L46.176,56.629L46.176,148.945L57.715,160.485L67.627,160.485L67.627,152.485Z" style="fill:rgb(240,186,10);fill-rule:nonzero;"/>
        <path class="sign" d="M181.581,152.485L168.129,152.485L168.129,53.09L181.581,53.09L181.581,45.09L160.129,45.09L160.129,160.485L181.581,160.485L181.581,152.485Z" style="fill:rgb(240,186,10);fill-rule:nonzero;"/>
        <path class="sign" d="M189.414,45.09L189.414,53.09L255.985,53.09L255.985,152.485L189.414,152.485L189.414,160.485L263.985,160.485L263.985,45.09L189.414,45.09Z" style="fill:rgb(240,186,10);fill-rule:nonzero;"/>
    </g>
</svg>
