<?xml version="1.0" encoding="UTF-8" standalone="no"?>
<!DOCTYPE svg PUBLIC "-//W3C//DTD SVG 1.1//EN" "http://www.w3.org/Graphics/SVG/1.1/DTD/svg11.dtd">
<svg width="100%" height="100%" viewBox="0 0 2394 481" version="1.1" xmlns="http://www.w3.org/2000/svg" xmlns:xlink="http://www.w3.org/1999/xlink" xml:space="preserve" xmlns:serif="http://www.serif.com/" style="fill-rule:evenodd;clip-rule:evenodd;stroke-linejoin:round;stroke-miterlimit:2;">
    <g transform="matrix(4.16667,0,0,4.16667,-192.4,-185.096)">
        <path d="M294.63,57.359L300.103,57.359C302.168,57.359 303.514,55.954 303.514,53.546C303.514,51.112 302.168,49.707 300.103,49.707L294.63,49.707L294.63,57.359ZM292.135,67.563L292.135,47.499L300.535,47.499C303.974,47.499 306.066,49.85 306.066,53.546C306.066,57.246 303.974,59.567 300.535,59.567L294.63,59.567L294.63,67.563L292.135,67.563Z" style="fill:rgb(35,31,32);fill-rule:nonzero;"/>
        <path d="M322.455,60.914L322.455,54.149C322.455,51.283 320.535,49.363 317.239,49.363C313.914,49.363 312.023,51.283 312.023,54.149L312.023,60.914C312.023,63.78 313.914,65.701 317.239,65.701C320.535,65.701 322.455,63.78 322.455,60.914ZM309.528,54.263C309.528,49.764 312.51,47.07 317.239,47.07C321.967,47.07 324.95,49.764 324.95,54.263L324.95,60.798C324.95,65.299 321.967,67.992 317.239,67.992C312.51,67.992 309.528,65.299 309.528,60.798L309.528,54.263Z" style="fill:rgb(35,31,32);fill-rule:nonzero;"/>
        <path d="M329.7,67.563L329.7,47.499L332.195,47.499L332.195,65.355L342.454,65.355L342.454,67.563L329.7,67.563Z" style="fill:rgb(35,31,32);fill-rule:nonzero;"/>
        <rect x="345.773" y="47.499" width="2.495" height="20.064" style="fill:rgb(35,31,32);fill-rule:nonzero;"/>
        <path d="M357.695,67.563L357.695,49.707L351.589,49.707L351.589,47.499L366.264,47.499L366.264,49.707L360.188,49.707L360.188,67.563L357.695,67.563Z" style="fill:rgb(35,31,32);fill-rule:nonzero;"/>
        <path d="M369.585,67.563L369.585,47.499L382.083,47.499L382.083,49.707L372.081,49.707L372.081,56.355L380.735,56.355L380.735,58.562L372.081,58.562L372.081,65.355L382.11,65.355L382.11,67.563L369.585,67.563Z" style="fill:rgb(35,31,32);fill-rule:nonzero;"/>
        <path d="M385.747,60.77L385.747,54.294C385.747,49.734 388.585,47.07 393.43,47.07C395.521,47.07 397.24,47.642 398.645,48.818C400.05,49.994 400.737,51.684 400.737,53.892L400.737,54.177L398.244,54.177L398.244,53.892C398.244,52.428 397.757,51.311 396.783,50.539C395.836,49.764 394.689,49.363 393.4,49.363C390.046,49.363 388.242,51.112 388.242,54.12L388.242,60.942C388.242,63.952 390.046,65.701 393.4,65.701C394.689,65.701 395.836,65.299 396.783,64.525C397.757,63.751 398.244,62.632 398.244,61.171L398.244,60.884L400.737,60.884L400.737,61.171C400.737,63.379 400.05,65.07 398.645,66.243C397.24,67.419 395.521,67.992 393.43,67.992C388.585,67.992 385.747,65.327 385.747,60.77Z" style="fill:rgb(35,31,32);fill-rule:nonzero;"/>
        <path d="M405.202,67.563L405.202,47.499L407.697,47.499L407.697,56.385L417.469,56.385L417.469,47.499L419.964,47.499L419.964,67.563L417.469,67.563L417.469,58.592L407.697,58.592L407.697,67.563L405.202,67.563Z" style="fill:rgb(35,31,32);fill-rule:nonzero;"/>
        <path d="M425.287,67.563L425.287,47.499L427.581,47.499L437.555,62.948L437.555,47.499L440.05,47.499L440.05,67.563L437.756,67.563L427.783,52.143L427.783,67.563L425.287,67.563Z" style="fill:rgb(35,31,32);fill-rule:nonzero;"/>
        <rect x="445.373" y="47.499" width="2.495" height="20.064" style="fill:rgb(35,31,32);fill-rule:nonzero;"/>
        <path d="M453.195,67.563L453.195,47.499L455.69,47.499L455.69,56.385L458.9,56.385L464.718,47.499L467.04,47.499L467.04,48.331L461.078,57.359L467.413,66.732L467.413,67.563L464.948,67.563L458.927,58.592L455.69,58.592L455.69,67.563L453.195,67.563Z" style="fill:rgb(35,31,32);fill-rule:nonzero;"/>
        <path d="M473.828,60.112L480.965,60.112L477.411,50.824L473.828,60.112ZM468.726,67.563L468.726,66.732L476.207,47.499L478.7,47.499L486.208,66.732L486.208,67.563L483.746,67.563L481.738,62.231L473.083,62.231L471.019,67.563L468.726,67.563Z" style="fill:rgb(35,31,32);fill-rule:nonzero;"/>
        <path d="M292.135,97.44L292.135,77.376L294.63,77.376L294.63,95.232L304.89,95.232L304.89,97.44L292.135,97.44Z" style="fill:rgb(35,31,32);fill-rule:nonzero;"/>
        <path d="M309.672,96.035C308.325,94.803 307.638,93.113 307.638,90.905L307.638,77.376L310.131,77.376L310.131,90.991C310.131,93.771 311.965,95.578 315.034,95.578C318.099,95.578 319.906,93.83 319.906,90.991L319.906,77.376L322.399,77.376L322.399,90.905C322.399,93.083 321.709,94.803 320.363,96.035C319.017,97.268 317.239,97.869 315.034,97.869C312.826,97.869 311.019,97.268 309.672,96.035Z" style="fill:rgb(35,31,32);fill-rule:nonzero;"/>
        <path d="M329.931,95.232L336.151,95.232C338.329,95.232 339.532,94.001 339.532,91.823C339.532,89.616 338.329,88.354 336.151,88.354L329.931,88.354L329.931,95.232ZM329.931,86.232L335.49,86.232C337.583,86.232 338.757,85.001 338.757,82.909C338.757,80.759 337.612,79.584 335.434,79.584L329.931,79.584L329.931,86.232ZM327.436,97.44L327.436,77.376L335.864,77.376C339.275,77.376 341.252,79.211 341.252,82.652C341.252,84.801 340.392,86.262 338.644,87.006C340.908,87.666 342.025,89.3 342.025,91.964C342.025,95.492 339.991,97.44 336.58,97.44L327.436,97.44Z" style="fill:rgb(35,31,32);fill-rule:nonzero;"/>
        <path d="M346.205,97.44L346.205,77.376L358.702,77.376L358.702,79.584L348.7,79.584L348.7,86.232L357.354,86.232L357.354,88.44L348.7,88.44L348.7,95.232L358.729,95.232L358.729,97.44L346.205,97.44Z" style="fill:rgb(35,31,32);fill-rule:nonzero;"/>
        <path d="M362.939,97.44L362.939,77.376L365.434,77.376L365.434,95.232L375.693,95.232L375.693,97.44L362.939,97.44Z" style="fill:rgb(35,31,32);fill-rule:nonzero;"/>
        <path d="M379.673,96.092C378.184,94.917 377.438,93.199 377.438,90.933L379.933,90.933C379.933,94.46 382.884,95.578 385.292,95.578C388.159,95.578 389.763,94.258 389.763,92.338C389.763,91.478 389.417,90.792 388.731,90.304C388.042,89.787 386.867,89.214 385.176,88.584L383.743,88.067C381.709,87.352 380.276,86.578 379.388,85.803C378.5,85.029 378.069,83.911 378.069,82.478C378.069,79.155 380.706,76.947 384.977,76.947C389.362,76.947 392.256,79.125 392.256,83.712L389.763,83.712C389.763,80.643 387.727,79.24 384.947,79.24C382.282,79.24 380.561,80.502 380.561,82.306C380.561,83.194 380.876,83.855 381.48,84.342C382.081,84.829 383.198,85.344 384.775,85.889L386.123,86.376C388.186,87.15 389.247,87.58 390.507,88.498C391.797,89.414 392.4,90.618 392.4,92.224C392.4,95.547 389.791,97.869 385.176,97.869C382.999,97.869 381.165,97.268 379.673,96.092Z" style="fill:rgb(35,31,32);fill-rule:nonzero;"/>
        <path d="M396.865,97.44L396.865,77.376L399.36,77.376L399.36,86.262L402.569,86.262L408.387,77.376L410.708,77.376L410.708,78.209L404.747,87.236L411.083,96.61L411.083,97.44L408.617,97.44L402.597,88.47L399.36,88.47L399.36,97.44L396.865,97.44Z" style="fill:rgb(35,31,32);fill-rule:nonzero;"/>
        <path d="M417.495,89.989L424.633,89.989L421.078,80.702L417.495,89.989ZM412.393,97.44L412.393,96.61L419.875,77.376L422.367,77.376L429.876,96.61L429.876,97.44L427.414,97.44L425.405,92.109L416.75,92.109L414.686,97.44L412.393,97.44Z" style="fill:rgb(35,31,32);fill-rule:nonzero;"/>
        <path d="M294.659,127.318L290.702,108.087L290.702,107.255L293.168,107.255L296.349,123.335L300.449,112.932L302.024,112.932L306.181,123.393L309.333,107.255L311.655,107.255L311.655,108.087L307.701,127.318L305.349,127.318L301.193,116.742L297.009,127.318L294.659,127.318Z" style="fill:rgb(146,150,152);fill-rule:nonzero;"/>
        <path d="M320.361,127.318L320.361,119.351L313.252,108.087L313.252,107.255L315.717,107.255L321.622,116.858L327.667,107.255L329.933,107.255L329.933,108.087L322.854,119.265L322.854,127.318L320.361,127.318Z" style="fill:rgb(146,150,152);fill-rule:nonzero;"/>
        <path d="M335.49,125.111L339.989,125.111C343.285,125.111 345.207,123.249 345.207,120.383L345.207,114.191C345.207,111.324 343.285,109.463 339.989,109.463L335.49,109.463L335.49,125.111ZM332.995,127.318L332.995,107.255L339.989,107.255C344.717,107.255 347.7,109.806 347.7,114.249L347.7,120.325C347.7,124.768 344.717,127.318 339.989,127.318L332.995,127.318Z" style="fill:rgb(146,150,152);fill-rule:nonzero;"/>
        <path d="M351.016,127.318L351.016,125.142L361.967,109.463L351.417,109.463L351.417,107.255L364.833,107.255L364.833,109.404L353.883,125.111L365.119,125.111L365.119,127.318L351.016,127.318Z" style="fill:rgb(146,150,152);fill-rule:nonzero;"/>
        <rect x="368.982" y="107.255" width="2.496" height="20.063" style="fill:rgb(146,150,152);fill-rule:nonzero;"/>
        <path d="M379.901,119.868L387.039,119.868L383.483,110.58L379.901,119.868ZM374.798,127.318L374.798,126.488L382.28,107.255L384.773,107.255L392.282,126.488L392.282,127.318L389.819,127.318L387.811,121.987L379.156,121.987L377.092,127.318L374.798,127.318Z" style="fill:rgb(146,150,152);fill-rule:nonzero;"/>
        <path d="M396.749,127.318L396.749,120.184L394.513,121.901L393.625,121.901L393.625,119.868L396.749,117.488L396.749,107.255L399.242,107.255L399.242,115.568L403.599,112.157L404.487,112.157L404.487,114.221L399.242,118.291L399.242,125.111L409.503,125.111L409.503,127.318L396.749,127.318Z" style="fill:rgb(146,150,152);fill-rule:nonzero;"/>
        <path d="M421.305,125.111L427.525,125.111C429.703,125.111 430.906,123.88 430.906,121.702C430.906,119.494 429.703,118.234 427.525,118.234L421.305,118.234L421.305,125.111ZM421.305,116.111L426.864,116.111C428.958,116.111 430.131,114.88 430.131,112.788C430.131,110.638 428.986,109.463 426.808,109.463L421.305,109.463L421.305,116.111ZM418.81,127.318L418.81,107.255L427.237,107.255C430.649,107.255 432.626,109.089 432.626,112.53C432.626,114.68 431.766,116.142 430.018,116.886C432.281,117.544 433.399,119.179 433.399,121.844C433.399,125.371 431.365,127.318 427.954,127.318L418.81,127.318Z" style="fill:rgb(146,150,152);fill-rule:nonzero;"/>
        <path d="M439.327,125.914C437.98,124.682 437.293,122.991 437.293,120.784L437.293,107.255L439.786,107.255L439.786,120.87C439.786,123.651 441.621,125.456 444.688,125.456C447.754,125.456 449.561,123.708 449.561,120.87L449.561,107.255L452.053,107.255L452.053,120.784C452.053,122.962 451.365,124.682 450.018,125.914C448.67,127.148 446.894,127.748 444.688,127.748C442.481,127.748 440.674,127.148 439.327,125.914Z" style="fill:rgb(146,150,152);fill-rule:nonzero;"/>
        <path d="M459.588,125.111L464.087,125.111C467.382,125.111 469.305,123.249 469.305,120.383L469.305,114.191C469.305,111.324 467.382,109.463 464.087,109.463L459.588,109.463L459.588,125.111ZM457.093,127.318L457.093,107.255L464.087,107.255C468.816,107.255 471.798,109.806 471.798,114.249L471.798,120.325C471.798,124.768 468.816,127.318 464.087,127.318L457.093,127.318Z" style="fill:rgb(146,150,152);fill-rule:nonzero;"/>
        <path d="M488.902,120.67L488.902,113.905C488.902,111.039 486.981,109.119 483.686,109.119C480.361,109.119 478.47,111.039 478.47,113.905L478.47,120.67C478.47,123.536 480.361,125.456 483.686,125.456C486.981,125.456 488.902,123.536 488.902,120.67ZM475.975,114.02C475.975,109.521 478.958,106.826 483.686,106.826C488.415,106.826 491.396,109.521 491.396,114.02L491.396,120.555C491.396,125.056 488.415,127.748 483.686,127.748C478.958,127.748 475.975,125.056 475.975,120.555L475.975,114.02Z" style="fill:rgb(146,150,152);fill-rule:nonzero;"/>
        <path d="M498.669,127.318L494.713,108.087L494.713,107.255L497.178,107.255L500.36,123.335L504.46,112.932L506.035,112.932L510.193,123.393L513.344,107.255L515.666,107.255L515.666,108.087L511.711,127.318L509.36,127.318L505.205,116.742L501.021,127.318L498.669,127.318Z" style="fill:rgb(146,150,152);fill-rule:nonzero;"/>
        <path d="M519.555,127.318L519.555,107.255L521.849,107.255L531.823,122.704L531.823,107.255L534.316,107.255L534.316,127.318L532.025,127.318L522.05,111.9L522.05,127.318L519.555,127.318Z" style="fill:rgb(146,150,152);fill-rule:nonzero;"/>
        <rect x="539.641" y="107.255" width="2.495" height="20.063" style="fill:rgb(146,150,152);fill-rule:nonzero;"/>
        <path d="M546.892,120.526L546.892,114.05C546.892,109.49 549.731,106.826 554.575,106.826C556.667,106.826 558.385,107.399 559.791,108.574C561.196,109.75 561.882,111.441 561.882,113.649L561.882,113.934L559.389,113.934L559.389,113.649C559.389,112.185 558.903,111.068 557.928,110.295C556.982,109.521 555.834,109.119 554.545,109.119C551.192,109.119 549.385,110.867 549.385,113.876L549.385,120.698C549.385,123.708 551.192,125.456 554.545,125.456C555.834,125.456 556.982,125.056 557.928,124.281C558.903,123.506 559.389,122.389 559.389,120.928L559.389,120.641L561.882,120.641L561.882,120.928C561.882,123.135 561.196,124.826 559.791,125.999C558.385,127.175 556.667,127.748 554.575,127.748C549.731,127.748 546.892,125.083 546.892,120.526Z" style="fill:rgb(146,150,152);fill-rule:nonzero;"/>
        <path d="M570.447,127.318L570.447,109.463L564.341,109.463L564.341,107.255L579.016,107.255L579.016,109.463L572.94,109.463L572.94,127.318L570.447,127.318Z" style="fill:rgb(146,150,152);fill-rule:nonzero;"/>
        <path d="M584.858,127.318L580.902,108.087L580.902,107.255L583.367,107.255L586.548,123.335L590.649,112.932L592.223,112.932L596.381,123.393L599.533,107.255L601.854,107.255L601.854,108.087L597.9,127.318L595.548,127.318L591.393,116.742L587.209,127.318L584.858,127.318Z" style="fill:rgb(146,150,152);fill-rule:nonzero;"/>
        <path d="M608.269,119.868L615.407,119.868L611.852,110.58L608.269,119.868ZM603.167,127.318L603.167,126.488L610.648,107.255L613.141,107.255L620.65,126.488L620.65,127.318L618.187,127.318L616.179,121.987L607.525,121.987L605.46,127.318L603.167,127.318Z" style="fill:rgb(146,150,152);fill-rule:nonzero;"/>
        <rect x="292.135" y="137.132" width="2.495" height="20.064" style="fill:rgb(146,150,152);fill-rule:nonzero;"/>
        <path d="M310.187,149.745L317.325,149.745L313.77,140.458L310.187,149.745ZM305.085,157.196L305.085,156.366L312.566,137.132L315.059,137.132L322.568,156.366L322.568,157.196L320.105,157.196L318.097,151.865L309.443,151.865L307.378,157.196L305.085,157.196Z" style="fill:rgb(146,150,152);fill-rule:nonzero;"/>
        <path d="M328.384,147.05L333.857,147.05C336.237,147.05 337.556,145.703 337.556,143.18C337.556,140.629 336.323,139.34 333.857,139.34L328.384,139.34L328.384,147.05ZM325.889,157.196L325.889,137.132L334.289,137.132C337.985,137.132 340.107,139.398 340.107,143.18C340.107,146.132 338.816,148.053 336.267,148.943L340.422,156.366L340.422,157.196L337.958,157.196L333.514,149.256L328.384,149.256L328.384,157.196L325.889,157.196Z" style="fill:rgb(146,150,152);fill-rule:nonzero;"/>
        <path d="M343.969,150.403L343.969,143.927C343.969,139.367 346.807,136.703 351.652,136.703C353.744,136.703 355.461,137.276 356.868,138.451C358.272,139.627 358.958,141.318 358.958,143.526L358.958,143.811L356.466,143.811L356.466,143.526C356.466,142.063 355.979,140.944 355.005,140.172C354.059,139.398 352.911,138.996 351.622,138.996C348.268,138.996 346.461,140.745 346.461,143.753L346.461,150.575C346.461,153.586 348.268,155.334 351.622,155.334C352.911,155.334 354.059,154.933 355.005,154.158C355.979,153.384 356.466,152.266 356.466,150.805L356.466,150.518L358.958,150.518L358.958,150.805C358.958,153.013 358.272,154.703 356.868,155.877C355.461,157.053 353.744,157.625 351.652,157.625C346.807,157.625 343.969,154.961 343.969,150.403Z" style="fill:rgb(146,150,152);fill-rule:nonzero;"/>
        <path d="M363.423,157.196L363.423,137.132L365.918,137.132L365.918,146.019L375.691,146.019L375.691,137.132L378.184,137.132L378.184,157.196L375.691,157.196L375.691,148.227L365.918,148.227L365.918,157.196L363.423,157.196Z" style="fill:rgb(146,150,152);fill-rule:nonzero;"/>
        <rect x="383.509" y="137.132" width="2.495" height="20.064" style="fill:rgb(146,150,152);fill-rule:nonzero;"/>
        <path d="M395.431,157.196L395.431,139.34L389.326,139.34L389.326,137.132L404,137.132L404,139.34L397.924,139.34L397.924,157.196L395.431,157.196Z" style="fill:rgb(146,150,152);fill-rule:nonzero;"/>
        <path d="M407.322,157.196L407.322,137.132L419.819,137.132L419.819,139.34L409.816,139.34L409.816,145.988L418.471,145.988L418.471,148.196L409.816,148.196L409.816,154.988L419.846,154.988L419.846,157.196L407.322,157.196Z" style="fill:rgb(146,150,152);fill-rule:nonzero;"/>
        <path d="M424.056,157.196L424.056,137.132L426.55,137.132L426.55,146.019L429.76,146.019L435.579,137.132L437.9,137.132L437.9,137.965L431.938,146.992L438.274,156.366L438.274,157.196L435.808,157.196L429.789,148.227L426.55,148.227L426.55,157.196L424.056,157.196Z" style="fill:rgb(146,150,152);fill-rule:nonzero;"/>
        <path d="M445.69,157.196L445.69,139.34L439.584,139.34L439.584,137.132L454.259,137.132L454.259,139.34L448.183,139.34L448.183,157.196L445.69,157.196Z" style="fill:rgb(146,150,152);fill-rule:nonzero;"/>
        <path d="M459.329,155.791C457.982,154.56 457.295,152.869 457.295,150.661L457.295,137.132L459.788,137.132L459.788,150.747C459.788,153.527 461.623,155.334 464.69,155.334C467.756,155.334 469.562,153.586 469.562,150.747L469.562,137.132L472.055,137.132L472.055,150.661C472.055,152.839 471.367,154.56 470.019,155.791C468.674,157.025 466.896,157.625 464.69,157.625C462.483,157.625 460.676,157.025 459.329,155.791Z" style="fill:rgb(146,150,152);fill-rule:nonzero;"/>
        <path d="M479.588,147.05L485.061,147.05C487.44,147.05 488.759,145.703 488.759,143.18C488.759,140.629 487.526,139.34 485.061,139.34L479.588,139.34L479.588,147.05ZM477.093,157.196L477.093,137.132L485.493,137.132C489.189,137.132 491.311,139.398 491.311,143.18C491.311,146.132 490.021,148.053 487.47,148.943L491.626,156.366L491.626,157.196L489.161,157.196L484.718,149.256L479.588,149.256L479.588,157.196L477.093,157.196Z" style="fill:rgb(146,150,152);fill-rule:nonzero;"/>
        <path d="M500.562,157.196L500.562,149.229L493.454,137.965L493.454,137.132L495.919,137.132L501.824,146.735L507.87,137.132L510.134,137.132L510.134,137.965L503.055,149.143L503.055,157.196L500.562,157.196Z" style="fill:rgb(146,150,152);fill-rule:nonzero;"/>
        <path class="sign" d="M67.627,151.818L54.176,151.818L54.176,52.423L67.627,52.423L67.627,44.423L46.176,44.423L46.176,159.818L67.627,159.818L67.627,151.818Z" style="fill:rgb(123,127,129);fill-rule:nonzero;"/>
        <path class="sign" d="M150.033,55.963L138.484,44.423L75.46,44.423L75.46,52.423L135.171,52.423L142.033,59.279L142.033,87.276L132.818,96.519L127.166,102.19L132.84,107.837L142.033,116.985L142.033,144.965L135.179,151.818L75.46,151.818L75.46,159.818L138.493,159.818L150.033,148.279L150.033,113.66L138.484,102.167L150.033,90.582L150.033,55.963Z" style="fill:rgb(123,127,129);fill-rule:nonzero;"/>
        <path class="sign" d="M181.582,151.818L168.13,151.818L168.143,59.203L174.967,52.423L181.582,52.423L181.582,44.423L171.669,44.423L160.144,55.874L160.129,159.818L181.582,159.818L181.582,151.818Z" style="fill:rgb(123,127,129);fill-rule:nonzero;"/>
        <path class="sign" d="M252.446,44.423L189.414,44.423L189.414,52.423L249.132,52.423L255.985,59.277L255.985,151.818L225.827,151.818L225.827,128.739L198.288,128.739L198.288,151.818L189.414,151.818L189.414,159.818L206.288,159.818L206.288,136.739L217.827,136.739L217.827,159.818L263.985,159.818L263.985,55.963L252.446,44.423Z" style="fill:rgb(123,127,129);fill-rule:nonzero;"/>
    </g>
</svg>
