<?xml version="1.0" encoding="UTF-8" standalone="no"?>
<!DOCTYPE svg PUBLIC "-//W3C//DTD SVG 1.1//EN" "http://www.w3.org/Graphics/SVG/1.1/DTD/svg11.dtd">
<svg width="100%" height="100%" viewBox="0 0 1820 481" version="1.1" xmlns="http://www.w3.org/2000/svg" xmlns:xlink="http://www.w3.org/1999/xlink" xml:space="preserve" xmlns:serif="http://www.serif.com/" style="fill-rule:evenodd;clip-rule:evenodd;stroke-linejoin:round;stroke-miterlimit:2;">
    <g transform="matrix(4.16667,0,0,4.16667,-190.929,-182.275)">
        <path d="M294.124,56.465L299.504,56.465C301.534,56.465 302.859,55.084 302.859,52.716C302.859,50.322 301.534,48.94 299.504,48.94L294.124,48.94L294.124,56.465ZM291.669,66.499L291.669,46.77L299.928,46.77C303.31,46.77 305.367,49.082 305.367,52.716C305.367,56.353 303.31,58.636 299.928,58.636L294.124,58.636L294.124,66.499L291.669,66.499Z" style="fill:rgb(35,31,32);fill-rule:nonzero;"/>
        <path d="M321.482,59.961L321.482,53.309C321.482,50.491 319.594,48.603 316.354,48.603C313.083,48.603 311.225,50.491 311.225,53.309L311.225,59.961C311.225,62.779 313.083,64.668 316.354,64.668C319.594,64.668 321.482,62.779 321.482,59.961ZM308.772,53.421C308.772,48.998 311.705,46.348 316.354,46.348C321.003,46.348 323.935,48.998 323.935,53.421L323.935,59.847C323.935,64.273 321.003,66.92 316.354,66.92C311.705,66.92 308.772,64.273 308.772,59.847L308.772,53.421Z" style="fill:rgb(35,31,32);fill-rule:nonzero;"/>
        <path d="M328.606,66.499L328.606,46.77L331.059,46.77L331.059,64.328L341.147,64.328L341.147,66.499L328.606,66.499Z" style="fill:rgb(35,31,32);fill-rule:nonzero;"/>
        <rect x="344.411" y="46.77" width="2.453" height="19.729" style="fill:rgb(35,31,32);fill-rule:nonzero;"/>
        <path d="M356.133,66.499L356.133,48.94L350.129,48.94L350.129,46.77L364.559,46.77L364.559,48.94L358.584,48.94L358.584,66.499L356.133,66.499Z" style="fill:rgb(35,31,32);fill-rule:nonzero;"/>
        <path d="M367.825,66.499L367.825,46.77L380.113,46.77L380.113,48.94L370.278,48.94L370.278,55.478L378.788,55.478L378.788,57.649L370.278,57.649L370.278,64.328L380.14,64.328L380.14,66.499L367.825,66.499Z" style="fill:rgb(35,31,32);fill-rule:nonzero;"/>
        <path d="M383.716,59.819L383.716,53.451C383.716,48.968 386.507,46.348 391.27,46.348C393.327,46.348 395.017,46.911 396.399,48.067C397.781,49.223 398.456,50.885 398.456,53.056L398.456,53.337L396.004,53.337L396.004,53.056C396.004,51.618 395.525,50.518 394.567,49.759C393.637,48.998 392.508,48.603 391.241,48.603C387.944,48.603 386.169,50.322 386.169,53.28L386.169,59.988C386.169,62.948 387.944,64.668 391.241,64.668C392.508,64.668 393.637,64.273 394.567,63.511C395.525,62.75 396.004,61.651 396.004,60.214L396.004,59.931L398.456,59.931L398.456,60.214C398.456,62.384 397.781,64.047 396.399,65.201C395.017,66.357 393.327,66.92 391.27,66.92C386.507,66.92 383.716,64.3 383.716,59.819Z" style="fill:rgb(35,31,32);fill-rule:nonzero;"/>
        <path d="M402.845,66.499L402.845,46.77L405.298,46.77L405.298,55.507L414.908,55.507L414.908,46.77L417.361,46.77L417.361,66.499L414.908,66.499L414.908,57.678L405.298,57.678L405.298,66.499L402.845,66.499Z" style="fill:rgb(35,31,32);fill-rule:nonzero;"/>
        <path d="M422.595,66.499L422.595,46.77L424.85,46.77L434.658,61.961L434.658,46.77L437.111,46.77L437.111,66.499L434.856,66.499L425.048,51.337L425.048,66.499L422.595,66.499Z" style="fill:rgb(35,31,32);fill-rule:nonzero;"/>
        <rect x="442.344" y="46.77" width="2.454" height="19.729" style="fill:rgb(35,31,32);fill-rule:nonzero;"/>
        <path d="M450.037,66.499L450.037,46.77L452.49,46.77L452.49,55.507L455.646,55.507L461.367,46.77L463.649,46.77L463.649,47.588L457.787,56.465L464.016,65.682L464.016,66.499L461.592,66.499L455.673,57.678L452.49,57.678L452.49,66.499L450.037,66.499Z" style="fill:rgb(35,31,32);fill-rule:nonzero;"/>
        <path d="M470.324,59.171L477.342,59.171L473.846,50.04L470.324,59.171ZM465.307,66.499L465.307,65.682L472.664,46.77L475.115,46.77L482.498,65.682L482.498,66.499L480.076,66.499L478.102,61.256L469.591,61.256L467.562,66.499L465.307,66.499Z" style="fill:rgb(35,31,32);fill-rule:nonzero;"/>
        <path d="M291.669,95.877L291.669,76.147L294.124,76.147L294.124,93.706L304.21,93.706L304.21,95.877L291.669,95.877Z" style="fill:rgb(35,31,32);fill-rule:nonzero;"/>
        <path d="M308.914,94.495C307.588,93.284 306.914,91.621 306.914,89.45L306.914,76.147L309.365,76.147L309.365,89.535C309.365,92.268 311.168,94.045 314.185,94.045C317.2,94.045 318.976,92.326 318.976,89.535L318.976,76.147L321.427,76.147L321.427,89.45C321.427,91.591 320.75,93.284 319.425,94.495C318.102,95.708 316.354,96.298 314.185,96.298C312.014,96.298 310.238,95.708 308.914,94.495Z" style="fill:rgb(35,31,32);fill-rule:nonzero;"/>
        <path d="M328.833,93.706L334.95,93.706C337.09,93.706 338.274,92.495 338.274,90.353C338.274,88.182 337.09,86.942 334.95,86.942L328.833,86.942L328.833,93.706ZM328.833,84.856L334.299,84.856C336.359,84.856 337.512,83.645 337.512,81.588C337.512,79.474 336.386,78.318 334.245,78.318L328.833,78.318L328.833,84.856ZM326.38,95.877L326.38,76.147L334.667,76.147C338.021,76.147 339.966,77.951 339.966,81.335C339.966,83.449 339.12,84.885 337.401,85.617C339.626,86.265 340.725,87.873 340.725,90.493C340.725,93.961 338.725,95.877 335.372,95.877L326.38,95.877Z" style="fill:rgb(35,31,32);fill-rule:nonzero;"/>
        <path d="M344.834,95.877L344.834,76.147L357.123,76.147L357.123,78.318L347.288,78.318L347.288,84.856L355.798,84.856L355.798,87.027L347.288,87.027L347.288,93.706L357.15,93.706L357.15,95.877L344.834,95.877Z" style="fill:rgb(35,31,32);fill-rule:nonzero;"/>
        <path d="M361.29,95.877L361.29,76.147L363.743,76.147L363.743,93.706L373.831,93.706L373.831,95.877L361.29,95.877Z" style="fill:rgb(35,31,32);fill-rule:nonzero;"/>
        <path d="M377.744,94.551C376.28,93.395 375.545,91.706 375.545,89.478L377.999,89.478C377.999,92.946 380.902,94.045 383.269,94.045C386.087,94.045 387.665,92.748 387.665,90.86C387.665,90.013 387.326,89.338 386.65,88.86C385.973,88.351 384.817,87.788 383.155,87.168L381.746,86.66C379.746,85.957 378.336,85.195 377.463,84.434C376.59,83.672 376.166,82.573 376.166,81.164C376.166,77.896 378.758,75.725 382.958,75.725C387.27,75.725 390.117,77.867 390.117,82.377L387.665,82.377C387.665,79.36 385.664,77.981 382.929,77.981C380.309,77.981 378.618,79.221 378.618,80.996C378.618,81.869 378.927,82.518 379.52,82.997C380.111,83.476 381.209,83.982 382.76,84.518L384.085,84.997C386.115,85.758 387.157,86.18 388.397,87.084C389.665,87.984 390.257,89.168 390.257,90.748C390.257,94.015 387.692,96.298 383.155,96.298C381.013,96.298 379.21,95.708 377.744,94.551Z" style="fill:rgb(35,31,32);fill-rule:nonzero;"/>
        <path d="M394.648,95.877L394.648,76.147L397.101,76.147L397.101,84.885L400.257,84.885L405.978,76.147L408.26,76.147L408.26,76.965L402.398,85.843L408.627,95.059L408.627,95.877L406.204,95.877L400.285,87.056L397.101,87.056L397.101,95.877L394.648,95.877Z" style="fill:rgb(35,31,32);fill-rule:nonzero;"/>
        <path d="M414.933,88.549L421.952,88.549L418.456,79.418L414.933,88.549ZM409.917,95.877L409.917,95.059L417.273,76.147L419.724,76.147L427.107,95.059L427.107,95.877L424.685,95.877L422.711,90.633L414.201,90.633L412.171,95.877L409.917,95.877Z" style="fill:rgb(35,31,32);fill-rule:nonzero;"/>
        <path d="M294.151,125.255L290.26,106.345L290.26,105.526L292.684,105.526L295.813,121.338L299.844,111.109L301.392,111.109L305.481,121.395L308.58,105.526L310.863,105.526L310.863,106.345L306.974,125.255L304.663,125.255L300.577,114.856L296.462,125.255L294.151,125.255Z" style="fill:rgb(146,150,152);fill-rule:nonzero;"/>
        <path d="M319.423,125.255L319.423,117.42L312.434,106.345L312.434,105.526L314.858,105.526L320.664,114.969L326.608,105.526L328.835,105.526L328.835,106.345L321.875,117.336L321.875,125.255L319.423,125.255Z" style="fill:rgb(146,150,152);fill-rule:nonzero;"/>
        <path d="M334.299,123.085L338.723,123.085C341.963,123.085 343.854,121.253 343.854,118.435L343.854,112.347C343.854,109.528 341.963,107.697 338.723,107.697L334.299,107.697L334.299,123.085ZM331.846,125.255L331.846,105.526L338.723,105.526C343.373,105.526 346.305,108.035 346.305,112.403L346.305,118.378C346.305,122.747 343.373,125.255 338.723,125.255L331.846,125.255Z" style="fill:rgb(146,150,152);fill-rule:nonzero;"/>
        <path d="M349.566,125.255L349.566,123.114L360.333,107.697L349.96,107.697L349.96,105.526L363.152,105.526L363.152,107.641L352.385,123.085L363.433,123.085L363.433,125.255L349.566,125.255Z" style="fill:rgb(146,150,152);fill-rule:nonzero;"/>
        <rect x="367.232" y="105.526" width="2.453" height="19.729" style="fill:rgb(146,150,152);fill-rule:nonzero;"/>
        <path d="M377.967,117.929L384.986,117.929L381.491,108.797L377.967,117.929ZM372.951,125.255L372.951,124.439L380.307,105.526L382.758,105.526L390.141,124.439L390.141,125.255L387.72,125.255L385.746,120.013L377.235,120.013L375.207,125.255L372.951,125.255Z" style="fill:rgb(146,150,152);fill-rule:nonzero;"/>
        <path d="M394.534,125.255L394.534,118.239L392.335,119.929L391.462,119.929L391.462,117.929L394.534,115.589L394.534,105.526L396.985,105.526L396.985,113.701L401.27,110.347L402.143,110.347L402.143,112.376L396.985,116.378L396.985,123.085L407.075,123.085L407.075,125.255L394.534,125.255Z" style="fill:rgb(146,150,152);fill-rule:nonzero;"/>
        <path d="M290.26,154.633L290.26,152.491L301.028,137.075L290.655,137.075L290.655,134.904L303.846,134.904L303.846,137.019L293.079,152.462L304.126,152.462L304.126,154.633L290.26,154.633Z" style="fill:rgb(146,150,152);fill-rule:nonzero;"/>
        <path d="M310.97,147.307L317.989,147.307L314.493,138.174L310.97,147.307ZM305.954,154.633L305.954,153.817L313.309,134.904L315.761,134.904L323.144,153.817L323.144,154.633L320.722,154.633L318.748,149.391L310.238,149.391L308.208,154.633L305.954,154.633Z" style="fill:rgb(146,150,152);fill-rule:nonzero;"/>
        <path d="M328.861,144.657L334.243,144.657C336.583,144.657 337.879,143.332 337.879,140.852C337.879,138.343 336.667,137.075 334.243,137.075L328.861,137.075L328.861,144.657ZM326.408,154.633L326.408,134.904L334.667,134.904C338.301,134.904 340.388,137.132 340.388,140.852C340.388,143.754 339.118,145.642 336.612,146.518L340.698,153.817L340.698,154.633L338.274,154.633L333.905,146.825L328.861,146.825L328.861,154.633L326.408,154.633Z" style="fill:rgb(146,150,152);fill-rule:nonzero;"/>
        <path d="M343.341,154.633L343.341,152.491L354.108,137.075L343.736,137.075L343.736,134.904L356.926,134.904L356.926,137.019L346.16,152.462L357.208,152.462L357.208,154.633L343.341,154.633Z" style="fill:rgb(146,150,152);fill-rule:nonzero;"/>
        <path d="M364.05,147.307L371.069,147.307L367.574,138.174L364.05,147.307ZM376.001,159.141C374.225,159.141 373.183,158.324 373.183,157.057C373.183,156.295 373.662,155.479 374.647,154.633L373.803,154.633L371.829,149.391L363.319,149.391L361.29,154.633L359.034,154.633L359.034,153.817L366.39,134.904L368.841,134.904L376.225,153.817L376.225,154.633C375.267,155.338 374.789,155.985 374.789,156.549C374.789,157.253 375.351,157.62 376.48,157.62L377.58,157.62L377.58,159.141L376.001,159.141Z" style="fill:rgb(146,150,152);fill-rule:nonzero;"/>
        <path d="M381.942,152.462L386.366,152.462C389.606,152.462 391.496,150.631 391.496,147.813L391.496,141.725C391.496,138.906 389.606,137.075 386.366,137.075L381.942,137.075L381.942,152.462ZM379.489,154.633L379.489,134.904L386.366,134.904C391.015,134.904 393.947,137.413 393.947,141.781L393.947,147.756C393.947,152.125 391.015,154.633 386.366,154.633L379.489,154.633Z" style="fill:rgb(146,150,152);fill-rule:nonzero;"/>
        <path d="M397.208,154.633L397.208,152.491L407.976,137.075L397.603,137.075L397.603,134.904L410.794,134.904L410.794,137.019L400.027,152.462L411.075,152.462L411.075,154.633L397.208,154.633Z" style="fill:rgb(146,150,152);fill-rule:nonzero;"/>
        <path d="M417.918,147.307L424.937,147.307L421.441,138.174L417.918,147.307ZM412.902,154.633L412.902,153.817L420.257,134.904L422.708,134.904L430.092,153.817L430.092,154.633L427.67,154.633L425.696,149.391L417.186,149.391L415.157,154.633L412.902,154.633Z" style="fill:rgb(146,150,152);fill-rule:nonzero;"/>
        <path d="M433.358,154.633L433.358,134.904L435.613,134.904L445.42,150.096L445.42,134.904L447.874,134.904L447.874,154.633L445.619,154.633L435.811,139.472L435.811,154.633L433.358,154.633Z" style="fill:rgb(146,150,152);fill-rule:nonzero;"/>
        <rect x="453.108" y="134.904" width="2.453" height="19.729" style="fill:rgb(146,150,152);fill-rule:nonzero;"/>
        <path d="M463.843,147.307L470.862,147.307L467.366,138.174L463.843,147.307ZM458.827,154.633L458.827,153.817L466.183,134.904L468.634,134.904L476.017,153.817L476.017,154.633L473.595,154.633L471.622,149.391L463.111,149.391L461.082,154.633L458.827,154.633Z" style="fill:rgb(146,150,152);fill-rule:nonzero;"/>
        <path class="sign" d="M93.71,58.439L75.107,58.439L75.107,75.084L78.106,72.401L93.71,58.439Z" style="fill:rgb(50,115,181);fill-rule:nonzero;"/>
        <path class="sign" d="M67.275,58.439L53.823,58.439L53.823,51.747L67.275,51.747L67.275,43.747L45.823,43.747L45.823,66.439L67.275,66.439L67.275,58.439Z" style="fill:rgb(50,115,181);fill-rule:nonzero;"/>
        <path class="sign" d="M263.991,43.746L75.107,43.747L75.107,51.747L255.991,51.746L255.991,106.778L231.709,128.505L216.104,142.467L255.991,142.467L255.991,149.167L218.394,149.198L213.039,149.211L75.107,149.211L75.107,157.211L218.401,157.211L218.401,157.198L263.991,157.16L263.991,134.467L237.043,134.467L263.991,110.356L263.991,43.746Z" style="fill:rgb(50,115,181);fill-rule:nonzero;"/>
        <path class="sign" d="M67.275,149.211L53.823,149.211L53.823,94.128L67.275,82.092L67.275,71.357L45.823,90.551L45.823,157.211L67.275,157.211L67.275,149.211Z" style="fill:rgb(50,115,181);fill-rule:nonzero;"/>
    </g>
</svg>
